<svg xmlns="http://www.w3.org/2000/svg" width="67.04" height="28.228" viewBox="0 0 67.04 28.228">
  <path id="Path_3428" data-name="Path 3428" d="M-16.747-1.657H-18.9V7.177H-23.04V-14H-18.9v8.652h2.148L-11.907-14h4.72l-5.96,10.226L-6.431,7.177h-5.113ZM6.185.555H9.936V7.177H-3.98V-14H.164V3.486h6.02ZM9.42,10.537h5.355v-13.8H9.42V-6.949H24.305v3.691H18.92v13.8h5.385v3.691H9.42ZM33.684,5.394H31.536v8.834H27.391V-6.949h4.145V1.7h2.148l4.841-8.652h4.72L37.284,3.276,44,14.228H38.887Z" transform="translate(23.04 14)" fill="#fff"/>
</svg>
