<svg viewBox="0 0 99 24" version="1.1" xmlns="http://www.w3.org/2000/svg">
<g fill="#ffffff" fillRule="nonzero" transform="translate(-26.000000, -18.000000)">
<g id="navbar-logo" fill="#FFF">
<g transform="translate(26.000000, 18.000000)">
<path d="M12.5632,8.433 C12.5632,7.108 12.1932,6.065 11.4542,5.306 C10.7142,4.546 9.8002,4.165 8.7112,4.165 C7.6232,4.165 6.6832,4.546 5.8922,5.306 C5.1012,6.065 4.7062,7.103 4.7062,8.417 C4.7062,9.732 5.0912,10.795 5.8612,11.606 C6.6322,12.418 7.5712,12.823 8.6812,12.823 C9.7902,12.823 10.7142,12.423 11.4542,11.622 C12.1932,10.821 12.5632,9.758 12.5632,8.433 M13.2102,14.271 C11.7512,15.894 9.9382,16.705 7.7722,16.705 C5.6042,16.705 3.7762,15.972 2.2872,14.503 C0.7982,13.034 0.0532,11.073 0.0532,8.618 C0.0532,6.163 0.8182,4.15 2.3492,2.579 C3.8792,1.007 5.6302,0.222 7.6022,0.222 C9.5742,0.222 11.2072,1.033 12.5012,2.656 L12.5012,0.468 L17.1232,0.468 L17.1232,14.918 C17.1232,16.397 16.8662,17.712 16.3532,18.862 C15.8392,20.013 15.1512,20.916 14.2882,21.574 C12.5832,22.93 10.5702,23.607 8.2492,23.607 C7.0172,23.607 5.7582,23.407 4.4752,23.006 C3.1912,22.606 2.0662,22.036 1.1012,21.296 L2.8882,17.815 C4.4082,18.965 6.0152,19.54 7.7102,19.54 C9.4052,19.54 10.7452,19.119 11.7312,18.277 C12.7172,17.434 13.2102,16.1 13.2102,14.271 Z M29.2637,4.5658 C27.8877,4.5658 26.8607,5.0538 26.1827,6.0288 C25.5047,7.0048 25.1657,8.2938 25.1657,9.8968 L25.1657,17.0748 L20.5447,17.0748 L20.5447,0.4988 L25.1657,0.4988 L25.1657,2.6868 C25.7617,2.0088 26.5057,1.4338 27.3997,0.9608 C28.2937,0.4888 29.2017,0.2418 30.1267,0.2218 L30.1577,4.5658 L29.2637,4.5658 Z M82.4236,17.0751 L77.6476,17.0751 L72.0096,0.4991 L76.7846,0.4991 L80.0206,10.5131 L83.2556,0.4991 L87.7236,0.4991 L90.9586,10.5131 L94.1936,0.4991 L98.9996,0.4991 L93.3616,17.0751 L88.5546,17.0751 L85.5046,8.0481 L82.4236,17.0751 Z M59.8376,6.0453 C63.0216,6.0453 65.7026,7.1083 67.8796,9.2343 C70.0386,11.3423 71.1256,13.9623 71.1436,17.0903 L66.2446,17.0903 C66.2246,15.2103 65.6106,13.6033 64.3976,12.2693 C63.1656,10.9133 61.6506,10.2353 59.8536,10.2353 C58.0556,10.2353 56.5406,10.9133 55.3086,12.2693 C54.0966,13.6033 53.4816,15.2103 53.4616,17.0903 L48.5316,17.0903 L43.9296,17.0903 C43.9116,15.7773 43.5276,14.6983 42.7756,13.8563 C42.0056,12.9933 41.0196,12.5623 39.8176,12.5623 C38.6166,12.5623 37.6296,12.9933 36.8596,13.8563 C36.1076,14.6983 35.7236,15.7773 35.7066,17.0903 L31.0536,17.0903 C31.0756,14.7283 31.9056,12.7303 33.5476,11.0983 C35.2116,9.4453 37.3016,8.6183 39.8176,8.6183 C42.3336,8.6183 44.4236,9.4453 46.0876,11.0983 C47.5746,12.5753 48.3946,14.3523 48.5536,16.4273 C48.7116,13.5903 49.7906,11.1923 51.7966,9.2343 C53.9736,7.1083 56.6536,6.0453 59.8376,6.0453 Z" id="Combined-Shape"></path>
</g>
</g>
</g>
</svg>
