<?xml version="1.0" standalone="no"?>
<!DOCTYPE svg PUBLIC "-//W3C//DTD SVG 20010904//EN"
 "http://www.w3.org/TR/2001/REC-SVG-20010904/DTD/svg10.dtd">
<svg version="1.0" xmlns="http://www.w3.org/2000/svg"
 width="800.000000pt" height="800.000000pt" viewBox="0 0 800.000000 800.000000"
 preserveAspectRatio="xMidYMid meet">
<metadata>
Created by potrace 1.14, written by Peter Selinger 2001-2017
</metadata>
<g transform="translate(0.000000,800.000000) scale(0.100000,-0.100000)"
fill="#000000" stroke="none">
<path d="M6000 6584 c-62 -24 -98 -25 -85 -4 9 15 -33 4 -123 -31 -239 -94
-449 -248 -596 -437 l-49 -62 -36 65 c-73 135 -177 243 -339 352 l-77 52 -26
-53 -25 -54 -59 39 c-33 22 -62 39 -66 39 -13 0 -72 -148 -96 -240 -30 -113
-37 -271 -18 -381 31 -175 113 -342 193 -394 39 -26 306 -209 537 -370 247
-171 249 -172 310 -183 59 -10 216 -9 265 2 14 3 50 8 80 12 86 8 207 31 225
42 6 4 16 7 23 8 26 4 163 74 219 111 69 45 173 141 173 158 0 16 -141 120
-235 172 -143 79 -274 112 -431 108 l-86 -3 29 31 c15 18 30 34 33 37 79 82
192 270 251 418 70 176 113 423 100 580 -1 17 -16 15 -91 -14z"/>
<path d="M4280 5369 c-19 -5 -62 -12 -95 -14 -55 -4 -96 -11 -102 -15 -2 -2
-6 -3 -10 -4 -86 -20 -187 -105 -286 -238 -31 -43 -57 -80 -57 -82 0 -2 -16
-28 -35 -57 -19 -30 -35 -56 -35 -60 0 -6 141 -110 530 -391 74 -54 140 -101
145 -106 6 -4 31 -22 56 -39 59 -41 67 -51 74 -98 10 -67 -19 -80 -67 -32 -7
7 -38 31 -69 53 -31 21 -102 73 -158 114 -56 41 -112 82 -124 90 -52 35 -232
165 -237 170 -3 4 -26 21 -52 38 l-47 32 -20 -29 c-12 -16 -21 -33 -21 -39 0
-5 -6 -14 -13 -20 -10 -9 -27 -2 -68 28 l-55 39 -95 -157 c-52 -86 -102 -173
-113 -192 -10 -19 -38 -69 -61 -110 -86 -153 -121 -220 -216 -410 -113 -227
-270 -571 -281 -616 -2 -7 53 -53 122 -102 69 -50 130 -95 135 -99 6 -5 56
-41 113 -81 56 -40 110 -84 119 -98 18 -28 22 -89 7 -103 -8 -8 -82 43 -340
233 l-71 53 -11 -26 c-6 -14 -17 -41 -24 -59 l-13 -34 -64 47 c-34 25 -65 45
-67 42 -7 -7 -120 -309 -182 -487 -123 -350 -298 -943 -337 -1140 -3 -17 -24
-96 -32 -124 -4 -16 9 -11 73 24 44 24 89 49 101 57 22 14 22 14 12 -22 -6
-20 -8 -39 -5 -42 5 -5 122 57 168 88 14 11 29 19 32 19 10 0 332 205 426 271
47 33 92 64 100 69 12 7 9 13 -15 32 -39 30 -216 159 -283 205 -29 20 -60 46
-69 59 -19 29 -26 84 -14 103 10 16 -5 25 222 -140 80 -59 156 -112 168 -119
24 -12 27 -10 81 37 31 29 36 29 77 -3 l33 -25 108 82 c58 46 116 91 127 100
11 10 70 59 130 110 112 93 213 183 340 299 111 103 515 502 535 530 l18 25
-180 130 c-99 72 -210 152 -246 178 -37 26 -77 55 -90 65 -12 9 -78 58 -147
107 -68 50 -127 97 -131 105 -17 40 -21 80 -9 97 12 16 15 15 43 -8 16 -13 40
-32 53 -41 34 -23 339 -244 368 -265 13 -10 78 -57 145 -105 67 -48 132 -96
146 -107 l25 -21 43 45 c25 26 49 42 55 38 7 -4 27 -18 46 -32 l33 -25 57 60
c31 33 83 91 116 129 33 37 69 78 80 90 32 36 234 273 265 311 108 135 186
230 191 234 3 3 24 31 47 62 138 188 158 327 82 542 -92 258 -340 508 -652
659 -209 101 -430 148 -548 116z m-1766 -3309 c-18 -57 -29 -79 -34 -69 -8 14
-13 50 -11 82 1 19 58 83 66 75 3 -2 -7 -42 -21 -88z"/>
</g>
</svg>
