<svg width="50" height="40" viewBox="0 0 50 40" fill="none" xmlns="http://www.w3.org/2000/svg">
<path d="M19.4035 22.1908C19.5832 18.9845 21.1533 16.1597 23.5221 14.1573C25.845 12.1904 28.9717 10.9883 32.3832 10.9883C35.7913 10.9883 38.918 12.1904 41.2426 14.1573C43.6096 16.1597 45.1797 18.9846 45.3611 22.1875C45.5409 25.4819 44.2167 28.5424 41.8937 30.8111C39.525 33.1187 36.1558 34.5667 32.3832 34.5667C28.6105 34.5667 25.2346 33.1187 22.8676 30.8111C20.5429 28.5424 19.2221 25.4819 19.4035 22.1908V22.1908Z" fill="#41695A"/>
<path d="M25.7387 22.5067C25.8304 20.8565 26.6313 19.4027 27.8397 18.3722C29.0247 17.3599 30.6197 16.7412 32.36 16.7412C34.0985 16.7412 35.6935 17.3599 36.8794 18.3722C38.0869 19.4027 38.8878 20.8566 38.9804 22.505C39.0721 24.2005 38.3965 25.7756 37.2115 26.9432C36.0032 28.1308 34.2845 28.876 32.36 28.876C30.4354 28.876 28.7133 28.1308 27.5058 26.9432C26.3199 25.7756 25.6461 24.2005 25.7387 22.5067V22.5067Z" fill="#BDD3CC"/>
<path d="M15.1081 25.8092C15.1194 26.4519 15.3247 27.7008 15.6327 28.6762C16.28 30.7407 17.378 32.6505 18.9057 34.3337C20.4735 36.0638 22.404 37.4535 24.6339 38.4401C26.9777 39.4763 29.5173 40.0043 32.1551 40C34.7887 39.9965 37.3282 39.458 39.6721 38.414C41.9019 37.4178 43.8307 36.0221 45.3959 34.2912C46.9227 32.601 48.019 30.6877 48.668 28.6232C48.9942 27.5801 49.2004 26.5214 49.2831 25.4592C49.364 24.4126 49.3301 23.3643 49.1813 22.3169C48.8907 20.2758 48.1834 18.3607 47.0941 16.615C46.098 15.0109 44.8138 13.6065 43.287 12.4244L43.2904 12.4218L27.8816 0.610771C27.8677 0.600349 27.8564 0.589075 27.8416 0.579522C26.8307 -0.195199 25.1307 -0.19259 24.0188 0.583869C22.8947 1.36901 22.766 2.66743 23.7665 3.48645L23.7621 3.4908L30.1889 8.70802L10.6006 8.72885H10.5745C8.95539 8.73059 7.39893 9.79105 7.09095 11.1312C6.77427 12.4965 7.87395 13.629 9.55743 13.6351L9.55483 13.6412L19.4834 13.6221L1.76646 27.198C1.74384 27.2145 1.71948 27.2318 1.6986 27.2483C0.0273044 28.5259 -0.512961 30.6503 0.539754 31.9948C1.60813 33.3619 3.87973 33.3645 5.56843 32.0026L15.2377 24.1025C15.2377 24.1025 15.0968 25.1691 15.1081 25.8092V25.8092ZM39.9548 29.3805C37.9625 31.4068 35.1732 32.5559 32.1551 32.562C29.1327 32.5672 26.3435 31.4285 24.3511 29.4058C23.3776 28.42 22.6624 27.2857 22.2213 26.0776C21.7889 24.8903 21.621 23.6301 21.7324 22.3586C21.8377 21.1157 22.2083 19.9302 22.7999 18.8575C23.3811 17.8032 24.1815 16.8504 25.1698 16.0444C27.1065 14.4689 29.5721 13.616 32.1508 13.6125C34.7321 13.6091 37.196 14.4541 39.1344 16.0244C40.121 16.8269 40.9205 17.7762 41.5017 18.8289C42.0959 19.9006 42.4639 21.0818 42.5735 22.3282C42.6832 23.5979 42.5153 24.8564 42.0829 26.0446C41.6409 27.2562 40.9283 28.3904 39.9548 29.3805V29.3805Z" fill="#FAF7F4"/>
</svg>
