<svg width="37" height="41" viewBox="0 0 37 41" fill="none" xmlns="http://www.w3.org/2000/svg">
<path d="M13.1065 27.8745C10.9823 25.881 9.70779 23.1359 9.70779 19.9986C9.70779 16.8612 10.9496 14.1161 12.9758 12.1226C14.7406 10.3578 14.7406 7.61271 12.9758 5.84797C11.2111 4.08323 8.46594 4.08323 6.7012 5.84797C3.20441 9.47549 0.949463 14.4756 0.949463 19.9986C0.949463 25.5215 3.20441 30.5216 6.83192 34.1491C8.59666 35.9139 11.3418 35.9139 13.1065 34.1491C14.7079 32.3844 14.7079 29.6393 13.1065 27.8745Z" fill="#BDD3CC"/>
<path d="M13.1075 12.1254C15.101 10.0012 17.8788 8.75931 20.9834 8.75931C24.088 8.75931 26.8659 10.0012 28.8594 12.0273C30.6241 13.7921 33.3693 13.7921 35.134 12.0273C36.8987 10.2626 36.8987 7.51746 35.134 5.75272C31.5065 2.25592 26.5064 0.000976562 20.9834 0.000976562C15.4604 0.000976562 10.4603 2.25592 6.83283 5.88344C5.06809 7.64817 5.06809 10.3933 6.83283 12.1581C8.59757 13.7267 11.3427 13.7267 13.1075 12.1254Z" fill="#969696"/>
<path d="M28.8594 27.8769C26.8659 30.0011 24.088 31.243 20.9834 31.243C17.8788 31.243 15.101 30.0011 13.1075 27.9749C11.3427 26.2102 8.59757 26.2102 6.83283 27.9749C5.06809 29.7397 5.06809 32.4848 6.83283 34.2495C10.4603 37.7463 15.4604 40.0013 20.9834 40.0013C26.5064 40.0013 31.5065 37.7463 35.134 34.1188C36.8987 32.3541 36.8987 29.6089 35.134 27.8442C33.3693 26.2755 30.6241 26.2755 28.8594 27.8769Z" fill="white"/>
<path d="M9.96974 13.3697C12.3883 13.3697 14.3489 11.409 14.3489 8.99049C14.3489 6.57194 12.3883 4.61133 9.96974 4.61133C7.5512 4.61133 5.59058 6.57194 5.59058 8.99049C5.59058 11.409 7.5512 13.3697 9.96974 13.3697Z" fill="#182725"/>
<path d="M9.96974 35.3951C12.3883 35.3951 14.3489 33.4344 14.3489 31.0159C14.3489 28.5973 12.3883 26.6367 9.96974 26.6367C7.5512 26.6367 5.59058 28.5973 5.59058 31.0159C5.59058 33.4344 7.5512 35.3951 9.96974 35.3951Z" fill="#FAF7F4"/>
</svg>
