<svg width="43" height="40" viewBox="0 0 43 40" fill="none" xmlns="http://www.w3.org/2000/svg">
<path d="M42.8016 28.9784C42.8205 28.7945 42.834 28.6088 42.8445 28.4222C42.8573 28.2013 29.6121 15.5762 29.6121 15.5762H29.2954C29.2954 15.5762 42.7206 29.8025 42.8016 28.9783V28.9784Z" fill="#FAF7F4"/>
<path d="M14.5422 24.5991C14.5246 24.6379 14.5072 24.6767 14.4891 24.7153C14.4704 24.7559 14.451 24.7963 14.4318 24.8364C14.0097 25.7209 20.3427 31.9406 20.852 31.185C20.8752 31.1517 20.8985 31.1164 20.9217 31.083C20.9475 31.0434 20.9729 31.0055 20.9984 30.9659C21.4057 30.3446 14.723 24.1952 14.5422 24.5991V24.5991Z" fill="#FAF7F4"/>
<path d="M23.4916 33.3457C23.4737 33.3853 23.3462 33.6018 23.2298 33.7162C23.2101 33.7558 29.4122 39.935 29.4122 39.935H29.9706C29.971 39.935 24.1486 33.6069 23.4916 33.3457V33.3457Z" fill="#FAF7F4"/>
<path d="M42.8532 28.3104C42.5631 34.7701 37.2437 39.9351 30.7446 39.9351H29.8659L23.3756 33.5115C23.9095 32.7551 24.4058 31.9715 24.8477 31.1544H30.7446C32.6095 31.1544 34.1272 29.6305 34.1272 27.756C34.1272 25.8823 32.6095 24.3576 30.7446 24.3576H27.2549C27.5208 22.9456 27.6662 21.4896 27.6662 20C27.6662 18.4877 27.5182 17.011 27.2428 15.5764H29.4104L42.8149 28.8456C42.8308 28.6677 42.8435 28.49 42.8532 28.3104V28.3104ZM4.35801 0H0.832031V8.78068H4.35801C10.5163 8.78068 15.5271 13.8133 15.5271 20C15.5271 21.6831 15.1534 23.2809 14.4893 24.7154L20.9219 31.0831C23.034 27.9083 24.2687 24.0967 24.2687 20C24.2687 8.97209 15.3365 0 4.35801 0Z" fill="#FAF7F4"/>
<path d="M30.7443 0H16.4663C19.9537 2.13902 22.8414 5.17207 24.8089 8.78068H30.7443C32.6092 8.78068 34.1269 10.3045 34.1269 12.1791C34.1269 14.0531 32.6092 15.5769 30.7443 15.5769H29.4106L42.8151 28.8459C42.8467 28.486 42.8664 28.1238 42.8664 27.756C42.8664 24.7959 41.8091 22.0805 40.0536 19.967C41.8091 17.8546 42.8664 15.1387 42.8664 12.1791C42.8664 5.46381 37.429 0 30.7443 0Z" fill="#FAF7F4"/>
<path d="M29.8659 39.9345H16.5686C19.2452 38.2739 21.5592 36.0816 23.3756 33.511L29.8659 39.9345V39.9345ZM20.9219 31.0826L14.4898 24.7148C12.7128 28.5515 8.84042 31.2199 4.35801 31.2199H0.832031V39.9997H4.35801C11.2582 39.9997 17.3486 36.454 20.9219 31.0826V31.0826Z" fill="#FAF7F4"/>
</svg>
