<svg width="41" height="40" viewBox="0 0 41 40" fill="none" xmlns="http://www.w3.org/2000/svg">
<path fill-rule="evenodd" clip-rule="evenodd" d="M20.9294 40V32.2482C29.1346 32.2482 35.5039 24.1112 32.3529 15.4751C31.7742 13.8886 30.8557 12.4478 29.6616 11.2536C28.4676 10.0594 27.0268 9.14066 25.4404 8.56181C16.8043 5.43411 8.66735 11.7802 8.66735 19.9853H0.937988C0.937988 6.90809 13.586 -3.29181 27.2987 0.991315C33.2829 2.87371 38.0651 7.63265 39.9242 13.6176C44.2081 27.352 34.0307 40 20.9294 40Z" fill="#FAF7F4"/>
<path fill-rule="evenodd" clip-rule="evenodd" d="M13.2458 32.2705H20.9519V24.5645H13.2466L13.2458 32.2705ZM7.30737 38.209H13.245V32.2713H7.30737V38.209ZM2.34302 32.2713H7.30737V27.3062H2.34302V32.2713Z" fill="#FAF7F4"/>
</svg>
