<svg width="46" height="40" viewBox="0 0 46 40" fill="none" xmlns="http://www.w3.org/2000/svg">
<path d="M14.1066 14.3307L22.716 9.34271C22.8219 9.28133 22.942 9.24902 23.0643 9.24902C23.1866 9.24902 23.3067 9.28133 23.4126 9.34271L32.022 14.3307C32.1279 14.392 32.2158 14.4803 32.277 14.5865C32.3381 14.6928 32.3703 14.8133 32.3704 14.936V24.9119C32.3704 25.1614 32.2374 25.3921 32.022 25.5172L23.4126 30.5051C23.3067 30.5665 23.1866 30.5988 23.0643 30.5988C22.942 30.5988 22.8219 30.5665 22.716 30.5051L14.1066 25.5172C14.0007 25.4558 13.9128 25.3676 13.8517 25.2613C13.7905 25.1551 13.7583 25.0345 13.7583 24.9119V14.9358C13.7585 14.686 13.8912 14.4555 14.1066 14.3305" fill="#BDD3CC"/>
<path d="M45.3839 19.1067L35.0863 1.1295C34.7123 0.479549 34.0213 0 33.2733 0H12.6779C11.9299 0 11.2386 0.479549 10.8646 1.1295L0.567131 19.067C0.193118 19.7172 0.193118 20.5377 0.567131 21.1878L10.8646 39.0178C11.2386 39.6677 11.9299 40 12.6779 40H33.2731C34.0212 40 34.7123 39.6777 35.0861 39.0276L45.3837 21.1686C45.7581 20.5189 45.7581 19.7567 45.3837 19.1067H45.3839ZM36.8569 27.7514C36.8569 28.0155 36.6985 28.2601 36.4701 28.3925L23.3533 35.9864C23.2403 36.0514 23.1124 36.0855 22.9823 36.0855C22.8521 36.0855 22.7242 36.0514 22.6113 35.9864L9.48426 28.3925C9.25613 28.2601 9.09642 28.0157 9.09642 27.7512V12.5629C9.09642 12.2984 9.25382 12.0542 9.48213 11.9218L22.5983 4.32768C22.7112 4.26264 22.8391 4.22841 22.9692 4.22841C23.0994 4.22841 23.2273 4.26264 23.3401 4.32768L36.4678 11.9218C36.6963 12.0542 36.8569 12.2984 36.8569 12.5629V27.7512V27.7514Z" fill="#182725"/>
</svg>
