<svg width="28" height="40" viewBox="0 0 28 40" fill="none" xmlns="http://www.w3.org/2000/svg">
<path d="M7.60704 40.0003C11.2708 40.0003 14.2443 37.0136 14.2443 33.3336V26.667H7.60704C3.94324 26.667 0.969727 29.6537 0.969727 33.3336C0.969727 37.0136 3.94324 40.0003 7.60704 40.0003Z" fill="#BDD3CC"/>
<path d="M0.969727 19.9997C0.969727 16.3197 3.94324 13.333 7.60704 13.333H14.2443V26.6663H7.60704C3.94324 26.6663 0.969727 23.6796 0.969727 19.9997Z" fill="#182725"/>
<path d="M0.969727 6.66665C0.969727 2.98666 3.94324 0 7.60704 0H14.2443V13.3333H7.60704C3.94324 13.3333 0.969727 10.3466 0.969727 6.66665Z" fill="#969696"/>
<path d="M14.2444 0H20.8817C24.5455 0 27.519 2.98666 27.519 6.66665C27.519 10.3466 24.5455 13.3333 20.8817 13.3333H14.2444V0Z" fill="#F7F2EC"/>
<path d="M27.519 19.9997C27.519 23.6796 24.5455 26.6663 20.8817 26.6663C17.2179 26.6663 14.2444 23.6796 14.2444 19.9997C14.2444 16.3197 17.2179 13.333 20.8817 13.333C24.5455 13.333 27.519 16.3197 27.519 19.9997Z" fill="white"/>
</svg>
