<svg width="29" height="40" viewBox="0 0 29 40" fill="none" xmlns="http://www.w3.org/2000/svg">
<path d="M19.0008 14.4479L14.9923 18.1728L11.2715 10.6792L13.1936 6.37054C13.6795 5.51108 14.474 5.49972 14.9598 6.37054L19.0008 14.4479Z" fill="#969696"/>
<path d="M14.9938 18.1717L0 32.0902L11.273 10.6797L14.9938 18.1717Z" fill="#182725"/>
<path d="M23.3958 8.75088C24.114 8.06817 24.8532 8.29844 25.0401 9.26818L28.938 31.9014L16.0093 39.648C15.556 39.9009 14.3537 39.9999 14.3537 39.9999C14.3537 39.9999 13.2602 39.8669 12.841 39.6366L0 32.0895L23.3958 8.75088Z" fill="#FAF7F4"/>
<path d="M11.273 10.6793L0 32.0898L5.02394 0.795408C5.21242 -0.174332 5.76324 -0.273252 6.26043 0.586216L11.273 10.6793Z" fill="#969696"/>
</svg>
