<svg width="40" height="40" viewBox="0 0 40 40" fill="none" xmlns="http://www.w3.org/2000/svg">
<path d="M20 0.000976562C8.9536 0.000976562 0 8.95458 0 20.001C0 31.0474 8.9536 40.001 20 40.001C31.0464 40.001 40 31.0474 40 20.001C40 8.95458 31.0464 0.000976562 20 0.000976562ZM4.2976 20.209L19.792 35.7034C11.2832 35.593 4.408 28.7178 4.2976 20.209ZM23.5152 35.3114L4.6896 16.4858C6.2864 9.50498 12.5344 4.29538 20 4.29538C25.2176 4.29538 29.8416 6.84098 32.6976 10.7578L30.5232 12.6762C28.2064 9.35458 24.3568 7.18018 20 7.18018C14.4528 7.18018 9.728 10.7034 7.9424 15.6346L24.3664 32.057C28.3552 30.6122 31.4224 27.2458 32.4496 23.0762H25.6432V20.001H35.7072C35.7056 27.4666 30.496 33.7146 23.5152 35.3114Z" fill="#FAF7F4"/>
</svg>
