<svg width="41" height="40" viewBox="0 0 41 40" fill="none" xmlns="http://www.w3.org/2000/svg">
<path d="M39.4986 18.2178L22.0342 0.754336C21.029 -0.251445 19.3978 -0.251445 18.3914 0.754336L14.7648 4.3809L19.3653 8.98137C20.4343 8.62012 21.6603 8.86246 22.5125 9.71465C23.3687 10.5723 23.6093 11.8087 23.2393 12.8812L27.6729 17.315C28.7456 16.9454 29.9832 17.1845 30.84 18.0426C32.0373 19.2395 32.0373 21.1793 30.84 22.377C29.6423 23.5748 27.7025 23.5748 26.5042 22.377C25.6036 21.4754 25.3811 20.1528 25.837 19.0432L21.7023 14.9086L21.7018 25.7893C22.0016 25.9375 22.2753 26.1333 22.5125 26.369C23.7098 27.5659 23.7098 29.5059 22.5125 30.7045C21.3148 31.9017 19.374 31.9017 18.1781 30.7045C16.9807 29.5059 16.9807 27.5661 18.1781 26.3692C18.465 26.0821 18.806 25.8547 19.1814 25.7003V14.7181C18.8055 14.5646 18.4643 14.3372 18.1781 14.0492C17.2709 13.1432 17.0528 11.8121 17.5176 10.6982L12.9826 6.16277L1.00762 18.137C0.00136717 19.1437 0.00136717 20.7751 1.00762 21.7811L18.4723 39.2448C19.4778 40.2507 21.1087 40.2507 22.1154 39.2448L39.4984 21.8621C40.5043 20.8559 40.5043 19.2236 39.4984 18.2178" fill="white"/>
</svg>
