<svg width="51" height="40" viewBox="0 0 51 40" fill="none" xmlns="http://www.w3.org/2000/svg">
<path d="M32.5737 11.0143H34.0961L38.4334 6.69322L38.6467 4.85977C30.5766 -2.23653 18.257 -1.47189 11.1343 6.56822C9.15387 8.8017 7.71718 11.4581 6.93506 14.3333C7.41814 14.1354 7.95349 14.1041 8.45748 14.2416L17.1299 12.8165C17.1299 12.8165 17.5711 12.0894 17.7991 12.1352C21.6574 7.91414 28.1507 7.42244 32.6051 11.0143H32.5737Z" fill="#182725"/>
<path d="M44.6098 14.334C43.6122 10.6775 41.567 7.38975 38.7208 4.875L32.6353 10.9379C35.2054 13.0297 36.6693 16.182 36.6066 19.4885V20.5656C39.5991 20.5656 42.0229 22.9824 42.0229 25.9618C42.0229 28.9432 39.5971 31.358 36.6066 31.358H25.7718L24.6907 32.4497V38.9231L25.7718 40.0002H36.6066C42.8176 40.0481 48.328 36.0375 50.1725 30.1287C52.0128 24.2179 49.7542 17.8008 44.6098 14.334Z" fill="#FAF7F4"/>
<path d="M14.9234 39.9381H25.7582V31.2979H14.9234C14.1518 31.2979 13.3885 31.1334 12.6858 30.8125L11.1634 31.2813L6.79687 35.6024L6.41626 37.1192C8.86511 38.9609 11.8535 39.9506 14.9234 39.9381Z" fill="#BDD3CC"/>
<path d="M14.9234 11.9073C8.90478 11.9427 3.5742 15.7826 1.65444 21.4642C-0.265317 27.1458 1.64817 33.4171 6.4183 37.0715L12.7025 30.8106C9.9755 29.5835 8.76467 26.3874 9.99641 23.6706C11.2282 20.9537 14.4361 19.7474 17.1631 20.9746C18.3635 21.5163 19.3254 22.4747 19.8692 23.6706L26.1534 17.4097C23.4787 13.9283 19.3234 11.8927 14.9234 11.9073Z" fill="white"/>
</svg>
