<svg width="37" height="40" viewBox="0 0 37 40" fill="none" xmlns="http://www.w3.org/2000/svg">
<path d="M3.58844 30.4865L2.11694 29.6387L18.5096 1.30566L19.9811 2.15347L3.58844 30.4865Z" fill="white"/>
<path d="M1.77979 27.375H34.5651V29.0706H1.77979V27.375Z" fill="white"/>
<path d="M18.8275 37.7763L2.42871 28.3278L3.27828 26.8594L19.6771 36.3078L18.8275 37.7763ZM33.0731 13.1512L16.6743 3.70281L17.5239 2.23438L33.9227 11.6828L33.0731 13.1512Z" fill="white"/>
<path d="M3.28292 13.1443L2.43335 11.676L18.8321 2.22754L19.6817 3.69587L3.28292 13.1443Z" fill="white"/>
<path d="M32.7706 30.4865L16.378 2.15347L17.8495 1.30566L34.2421 29.6387L32.7706 30.4865ZM3.07983 10.5515H4.77898V29.4484H3.07983V10.5515Z" fill="white"/>
<path d="M31.5767 10.5518H33.2758V29.4486H31.5767V10.5518Z" fill="white"/>
<path d="M18.5385 37.0579L17.7964 35.7752L32.059 27.5576L32.8011 28.8403L18.5385 37.0579Z" fill="white"/>
<path d="M35.5274 30C34.5448 31.7058 32.3543 32.2881 30.645 31.3075C28.9356 30.3269 28.3521 28.141 29.3348 26.4351C30.3174 24.7293 32.5079 24.1471 34.2173 25.1277C35.9369 26.1185 36.5203 28.2942 35.5274 30ZM7.01048 13.5649C6.02784 15.2707 3.83738 15.8529 2.128 14.8723C0.418619 13.8917 -0.164822 11.7058 0.817816 10C1.80045 8.29418 3.99092 7.71195 5.7003 8.69254C7.40968 9.68335 7.99312 11.859 7.01048 13.5649M0.828052 30C-0.154586 28.2942 0.428855 26.1185 2.13823 25.1277C3.84761 24.1471 6.02784 24.7293 7.02072 26.4351C8.00335 28.141 7.41991 30.3167 5.71053 31.3075C3.99092 32.2881 1.81069 31.7058 0.828052 30M29.345 13.5649C28.3624 11.859 28.9458 9.68335 30.6552 8.69254C32.3646 7.71195 34.5448 8.29418 35.5377 10C36.5203 11.7058 35.9369 13.8815 34.2275 14.8723C32.5181 15.8529 30.3276 15.2707 29.345 13.5649M18.1777 40C16.2022 40 14.6054 38.4065 14.6054 36.4351C14.6054 34.4637 16.2022 32.8703 18.1777 32.8703C20.1533 32.8703 21.75 34.4637 21.75 36.4351C21.75 38.3963 20.1533 40 18.1777 40ZM18.1777 7.12973C16.2022 7.12973 14.6054 5.53626 14.6054 3.56486C14.6054 1.59346 16.2022 0 18.1777 0C20.1533 0 21.75 1.59346 21.75 3.56486C21.75 5.53626 20.1533 7.12973 18.1777 7.12973Z" fill="white"/>
</svg>
