<svg width="42" height="40" viewBox="0 0 42 40" fill="none" xmlns="http://www.w3.org/2000/svg">
<path d="M7.38444 0H34.0061C38.0422 0 41.3055 3.24786 41.3055 7.26496V32.735C41.3055 36.7521 38.0422 40 34.0061 40H7.38444C3.34826 40 0.0849609 36.7521 0.0849609 32.735V7.26496C0.0849609 3.24786 3.34826 0 7.38444 0Z" fill="#182725"/>
<path d="M20.0083 23.9319H13.6191L12.3138 27.949C12.2794 28.1028 12.142 28.2054 11.9875 28.1883H8.75853C8.5696 28.1883 8.51807 28.0857 8.5696 27.8806L14.1 12.0345C14.1515 11.8635 14.2031 11.6755 14.2718 11.4704C14.3405 11.1114 14.3748 10.7353 14.3748 10.3592C14.3577 10.2738 14.4264 10.1883 14.5122 10.1712H18.9606C19.098 10.1712 19.1667 10.2225 19.1839 10.308L25.4529 27.9148C25.5044 28.1028 25.4529 28.1883 25.2811 28.1883H21.6915C21.5713 28.2054 21.451 28.1199 21.4167 28.0003L20.0083 23.9319ZM14.6153 20.4618H18.9778C18.8747 20.1028 18.7373 19.6755 18.5828 19.231C18.4282 18.7695 18.2736 18.2738 18.119 17.761C17.9473 17.231 17.7927 16.7182 17.6209 16.1883C17.4492 15.6584 17.2946 15.1627 17.1572 14.6669C17.0198 14.1883 16.8996 13.7439 16.7794 13.3336H16.745C16.5904 14.0687 16.4015 14.8037 16.1611 15.5387C15.9034 16.3593 15.6458 17.214 15.371 18.0687C15.1305 18.9404 14.8729 19.7439 14.6153 20.4618ZM29.2829 13.1627C28.7162 13.1798 28.1665 12.9575 27.7543 12.5644C27.3593 12.137 27.1532 11.5729 27.1704 10.9917C27.1532 10.4105 27.3765 9.86352 27.7887 9.47036C28.2009 9.0772 28.7505 8.87207 29.3173 8.87207C29.9871 8.87207 30.5024 9.0772 30.8802 9.47036C31.2581 9.88062 31.4642 10.4276 31.447 10.9917C31.4642 11.5729 31.2581 12.137 30.8459 12.5644C30.4509 12.9746 29.8669 13.1969 29.2829 13.1627ZM27.3593 28.0003V14.8379C27.3593 14.6669 27.428 14.5986 27.5826 14.5986H30.9833C31.1379 14.5986 31.2066 14.684 31.2066 14.8379V28.0003C31.2066 28.1883 31.1379 28.2738 30.9833 28.2738H27.6169C27.4452 28.2738 27.3593 28.1712 27.3593 28.0003V28.0003Z" fill="#FAF7F4"/>
</svg>
