<svg width="41" height="40" viewBox="0 0 41 40" fill="none" xmlns="http://www.w3.org/2000/svg">
<path d="M40.678 0H0V40H40.678V0Z" fill="#FAF7F4"/>
<path d="M27.3254 31.2508C28.1448 32.5663 29.2108 33.5333 31.0962 33.5333C32.68 33.5333 33.6918 32.7549 33.6918 31.6793C33.6918 30.3904 32.6523 29.9339 30.9089 29.1841L29.9533 28.7809C27.195 27.6254 25.3625 26.1777 25.3625 23.1174C25.3625 20.2984 27.5469 18.1523 30.9606 18.1523C33.3909 18.1523 35.1381 18.9841 36.3972 21.1619L33.4206 23.0412C32.7653 21.8857 32.0582 21.4304 30.9606 21.4304C29.841 21.4304 29.1314 22.1289 29.1314 23.0412C29.1314 24.1689 29.8416 24.6254 31.4816 25.3238L32.4372 25.7263C35.685 27.0958 37.5188 28.492 37.5188 31.6311C37.5188 35.0152 34.8153 36.8692 31.1846 36.8692C27.6347 36.8692 25.3412 35.2057 24.219 33.0254L27.3254 31.2508ZM13.8222 31.5765C14.4227 32.6241 14.969 33.5098 16.2823 33.5098C17.5381 33.5098 18.3304 33.0266 18.3304 31.1479V18.3669H22.1528V31.1987C22.1528 35.0908 19.8322 36.8622 16.445 36.8622C13.3845 36.8622 11.6121 35.3047 10.7107 33.4288L13.8222 31.5765Z" fill="#182725"/>
</svg>
