<svg width="40" height="40" viewBox="0 0 40 40" fill="none" xmlns="http://www.w3.org/2000/svg">
<path d="M38.9794 9.04905C38.9939 9.10237 39.0013 9.15736 39.0014 9.2126V17.7985C39.0014 17.9087 38.9722 18.0169 38.9168 18.1123C38.8614 18.2076 38.7817 18.2867 38.6858 18.3416L31.4551 22.4905V30.7141C31.4551 30.9379 31.3358 31.1445 31.1411 31.2572L16.0478 39.9166C16.0132 39.9362 15.9756 39.9487 15.9379 39.962C15.9237 39.9667 15.9104 39.9753 15.8955 39.9792C15.79 40.0069 15.6791 40.0069 15.5735 39.9792C15.5563 39.9745 15.5406 39.9651 15.5241 39.9589C15.4895 39.9464 15.4534 39.9354 15.4204 39.9166L0.330286 31.2572C0.234423 31.2023 0.15477 31.1232 0.099356 31.0278C0.0439418 30.9325 0.0147244 30.8243 0.0146484 30.7141L0.0146484 4.95643C0.0146484 4.90009 0.0225001 4.84531 0.0366332 4.7921C0.0413442 4.7741 0.0523365 4.75767 0.0586179 4.73967C0.0703954 4.7068 0.0813877 4.67315 0.0986615 4.64264C0.110439 4.62229 0.127713 4.60586 0.141846 4.58708C0.159905 4.56203 0.176393 4.53621 0.197593 4.5143C0.215652 4.4963 0.239207 4.483 0.259621 4.46735C0.282391 4.44857 0.302805 4.42822 0.328716 4.41335H0.329501L7.87497 0.0836297C7.97051 0.0288375 8.07881 0 8.18904 0C8.29927 0 8.40756 0.0288375 8.5031 0.0836297L16.0486 4.41335H16.0501C16.0753 4.429 16.0965 4.44857 16.1192 4.46657C16.1397 4.48222 16.1624 4.4963 16.1805 4.51352C16.2025 4.53621 16.2182 4.56203 16.237 4.58708C16.2504 4.60586 16.2684 4.62229 16.2794 4.64264C16.2975 4.67394 16.3077 4.7068 16.3202 4.73967C16.3265 4.75767 16.3375 4.7741 16.3422 4.79288C16.3567 4.84621 16.3641 4.90119 16.3642 4.95643V21.0444L22.6518 17.4362V9.21181C22.6518 9.15704 22.6597 9.10148 22.6738 9.04905C22.6793 9.03027 22.6895 9.01383 22.6958 8.99584C22.7084 8.96297 22.7194 8.92932 22.7366 8.8988C22.7484 8.87846 22.7657 8.86202 22.779 8.84324C22.7979 8.8182 22.8136 8.79238 22.8356 8.77047C22.8536 8.75247 22.8764 8.73917 22.8968 8.72352C22.9204 8.70474 22.9408 8.68439 22.9659 8.66952H22.9667L30.5129 4.3398C30.6085 4.28493 30.7168 4.25605 30.827 4.25605C30.9373 4.25605 31.0456 4.28493 31.1411 4.3398L38.6865 8.66952C38.7132 8.68517 38.7337 8.70474 38.7572 8.72273C38.7768 8.73838 38.7996 8.75247 38.8177 8.76968C38.8397 8.79238 38.8554 8.8182 38.8742 8.84324C38.8883 8.86202 38.9056 8.87846 38.9166 8.8988C38.9347 8.92932 38.9449 8.96297 38.9574 8.99584C38.9645 9.01383 38.9747 9.03027 38.9794 9.04905V9.04905ZM37.7436 17.4362V10.2964L35.103 11.8114L31.4551 13.9046V21.0444L37.7443 17.4362H37.7436ZM30.1981 30.3518V23.2073L26.6099 25.2497L16.3634 31.078V38.2898L30.1981 30.3518ZM1.27249 6.04023V30.3518L15.1056 38.289V31.0788L7.87889 27.0026L7.87654 27.001L7.8734 26.9994C7.84906 26.9854 7.82864 26.965 7.80587 26.9478C7.78625 26.9321 7.76347 26.9196 7.7462 26.9024L7.74463 26.9001C7.72422 26.8805 7.71008 26.8562 7.69281 26.8343C7.67711 26.8132 7.65826 26.7952 7.6457 26.7733L7.64491 26.7709C7.63078 26.7475 7.62214 26.7193 7.61194 26.6927C7.60173 26.6692 7.58838 26.6473 7.5821 26.6223V26.6215C7.57425 26.5917 7.57268 26.5604 7.56954 26.5299C7.5664 26.5065 7.56012 26.483 7.56012 26.4595V9.64846L3.91301 7.55442L1.27249 6.04101V6.04023ZM8.18982 1.34976L1.90298 4.95643L8.18825 8.5631L14.4743 4.95565L8.18825 1.34976H8.18982ZM11.4593 23.8584L15.1064 21.7659V6.04023L12.4658 7.5552L8.81796 9.64846V25.3741L11.4593 23.8584ZM30.827 5.60593L24.541 9.2126L30.827 12.8193L37.1123 9.21181L30.827 5.60593ZM30.1981 13.9046L26.5502 11.8114L23.9097 10.2964V17.4362L27.5568 19.5287L30.1981 21.0444V13.9046ZM15.7337 29.9942L24.954 24.7481L29.5629 22.1266L23.2815 18.5223L16.0494 22.6721L9.45787 26.454L15.7337 29.9942Z" fill="#FAF7F4"/>
</svg>
