<svg width="19" height="40" viewBox="0 0 19 40" fill="none" xmlns="http://www.w3.org/2000/svg">
<path d="M9.81684 0.109375L10.8843 2.11422C11.1242 2.48419 11.3842 2.81166 11.6904 3.11664C12.5882 4.00322 13.4251 4.94947 14.1952 5.94891C16.0038 8.32372 17.2238 10.961 18.0949 13.8133C18.6174 15.5556 18.9011 17.343 18.9224 19.1504C19.0099 24.5537 17.1575 29.1933 13.4228 33.0492C12.8153 33.6607 12.159 34.2217 11.4605 34.7266C11.0905 34.7266 10.9155 34.4429 10.763 34.1817C10.4853 33.6973 10.3005 33.1653 10.2181 32.613C10.0868 31.9593 10.0006 31.3056 10.0431 30.6307V30.3257C10.0131 30.2607 9.68685 0.263113 9.81684 0.109375V0.109375Z" fill="#182725"/>
<path d="M9.81688 0.0430003C9.77313 -0.0444927 9.72939 0.021752 9.68564 0.0642486C9.70689 0.501714 9.5544 0.891683 9.31567 1.26415C9.05319 1.63412 8.70572 1.91785 8.357 2.22283C6.41965 3.90019 4.89477 5.92628 3.67362 8.19235C2.04875 11.2421 1.21132 14.5106 0.973835 17.9516C0.865094 19.1927 1.3663 23.5724 1.75752 24.836C2.82494 28.1908 4.74228 31.0018 7.22584 33.4416C7.83579 34.029 8.48824 34.574 9.16318 35.0977C9.35942 35.0977 9.38067 34.9227 9.42566 34.7927C9.5117 34.5146 9.57728 34.2305 9.6219 33.9428L10.0594 30.6756L9.81688 0.0430003Z" fill="#969696"/>
<path d="M10.884 36.054C10.9277 35.554 11.1677 35.139 11.4289 34.7253C11.1664 34.6166 10.9714 34.4004 10.819 34.1591C10.6875 33.9307 10.5786 33.69 10.494 33.4404C10.189 32.5255 10.124 31.5656 10.0365 30.6307V30.0645C9.92778 30.1519 9.90528 30.8919 9.90528 31.0019C9.84168 31.99 9.71055 32.9727 9.51281 33.9429C9.44782 34.3354 9.40407 34.7266 9.16284 35.0753C9.16284 35.1191 9.16284 35.1628 9.18409 35.2278C9.57656 36.3827 9.68405 37.5589 9.7503 38.7575V39.195C9.7503 39.7174 9.72905 39.6074 10.1628 39.7824C10.3377 39.8474 10.5327 39.8699 10.7077 39.9999C10.839 39.9999 10.8602 39.8912 10.8602 39.8037L10.7952 39.085V37.0801C10.774 36.7302 10.839 36.3827 10.8827 36.0552L10.884 36.054Z" fill="#FAF7F4"/>
</svg>
