<svg width="42" height="40" viewBox="0 0 42 40" fill="none" xmlns="http://www.w3.org/2000/svg">
<path d="M38.6669 30.9373C36.4376 30.882 34.7098 31.1038 33.2606 31.7134C32.8426 31.8795 32.1737 31.8797 32.1179 32.4063C32.3409 32.6281 32.3688 32.9884 32.5639 33.2931C32.8986 33.8473 33.4835 34.5957 34.013 34.9839C34.5981 35.4272 35.1836 35.8706 35.7964 36.2586C36.8834 36.9238 38.1097 37.3117 39.1686 37.9769C39.7819 38.3647 40.3946 38.8639 41.0077 39.2795C41.3143 39.5009 41.5093 39.8616 41.8996 40V39.917C41.7044 39.6674 41.6486 39.3072 41.4537 39.03C41.1753 38.7529 40.8963 38.5034 40.6176 38.2262C39.8095 37.1456 38.8063 36.2032 37.7195 35.4272C36.8278 34.8174 34.8768 33.9861 34.5147 32.9605C34.5147 32.9605 34.4866 32.933 34.4589 32.9052C35.0719 32.8498 35.7964 32.6281 36.3818 32.4618C37.3293 32.2121 38.1931 32.2677 39.1686 32.0183C39.6144 31.9074 40.0603 31.7688 40.5061 31.6302V31.3809C40.0047 30.882 39.6424 30.217 39.1129 29.7458C37.6916 28.526 36.1309 27.3345 34.5147 26.3368C33.6507 25.7825 32.5358 25.4221 31.6163 24.9511C31.2821 24.7846 30.7246 24.7016 30.5296 24.4245C30.0278 23.8148 29.7491 23.0112 29.3869 22.2905C28.579 20.7661 27.7985 19.0756 27.1017 17.4683C26.6003 16.3873 26.2938 15.3063 25.6806 14.3088C22.8102 9.59729 19.689 6.74269 14.8959 3.94337C13.8647 3.36146 12.6386 3.11201 11.3288 2.80727C10.6323 2.77939 9.93541 2.72412 9.2388 2.69624C8.79287 2.50222 8.34694 1.97574 7.95675 1.72628C6.3686 0.728451 2.27176 -1.43304 1.10135 1.42155C0.348843 3.22288 2.21618 4.99648 2.85689 5.91132C3.33101 6.54867 3.94385 7.26917 4.27829 7.98983C4.47339 8.46071 4.52897 8.95994 4.72407 9.4587C5.17016 10.6778 5.5879 12.0361 6.17334 13.1725C6.47992 13.7545 6.81421 14.3641 7.2044 14.8907C7.42737 15.1954 7.8174 15.3342 7.90117 15.833C7.51114 16.3873 7.48311 17.2188 7.25998 17.9116C6.2568 21.0434 6.64715 24.9234 8.06823 27.2236C8.514 27.9162 9.57309 29.441 10.9943 28.8588C12.2485 28.36 11.9698 26.7803 12.3318 25.3946C12.4157 25.0616 12.36 24.8402 12.5271 24.6185V24.6741C12.9173 25.4498 13.3073 26.1984 13.6696 26.9743C14.5336 28.3322 16.0383 29.7458 17.2923 30.6882C17.9614 31.1868 18.4908 32.046 19.3269 32.3509V32.2676H19.271C19.1038 32.0181 18.8529 31.9074 18.6301 31.7132C18.1286 31.2146 17.571 30.6048 17.181 30.0505C16.0107 28.4983 14.9794 26.7801 14.0598 25.0064C13.614 24.1474 13.2237 23.205 12.8615 22.346C12.6941 22.013 12.6941 21.5144 12.4156 21.3483C11.9975 21.9579 11.3845 22.4845 11.078 23.2328C10.5487 24.4245 10.4928 25.8933 10.2977 27.4175C10.1862 27.4455 10.2418 27.4175 10.1861 27.4732C9.29455 27.2512 8.98797 26.3368 8.65336 25.5607C7.81724 23.5931 7.67788 20.4336 8.40268 18.1611C8.59778 17.579 9.4339 15.75 9.09945 15.1956C8.93223 14.669 8.37465 14.3641 8.06823 13.9485C7.70607 13.4218 7.31572 12.7569 7.06505 12.1747C6.39615 10.6227 6.0617 8.90435 5.33722 7.35232C5.00277 6.63166 4.41781 5.88361 3.94385 5.21838C3.41446 4.47017 2.82918 3.94337 2.41112 3.05657C2.27192 2.75184 2.07667 2.25292 2.29963 1.92031C2.35537 1.69857 2.4667 1.61557 2.68982 1.56014C3.05214 1.25509 4.08336 1.64313 4.44536 1.80944C5.47658 2.22488 6.34041 2.61325 7.2044 3.19516C7.59443 3.47233 8.01249 3.99897 8.51401 4.13756H9.09929C9.99115 4.33142 10.9942 4.19299 11.8303 4.44229C13.3074 4.91333 14.6449 5.60627 15.8434 6.35465C19.4941 8.65489 22.5035 11.9252 24.5381 15.833C24.8725 16.4701 25.0117 17.0525 25.3183 17.7174C25.9037 19.0756 26.6282 20.4613 27.2132 21.7916C27.7985 23.094 28.3557 24.4245 29.1918 25.5054C29.6099 26.0872 31.2818 26.3922 32.0343 26.6971C32.5918 26.9464 33.4557 27.1683 33.9573 27.4731C34.9047 28.0548 35.8521 28.7204 36.744 29.3576C37.1899 29.6902 38.5832 30.3831 38.6669 30.9373V30.9373Z" fill="#FAF7F4"/>
<path d="M10.2417 6.85352C9.7681 6.85352 9.43381 6.90927 9.09937 6.99226V7.0477H9.15511C9.37823 7.49118 9.7681 7.79607 10.0466 8.18396C10.2698 8.62728 10.4647 9.07092 10.6878 9.51441C10.7155 9.48653 10.7434 9.45897 10.7434 9.45897C11.1338 9.18164 11.3287 8.73831 11.3287 8.07309C11.1615 7.87923 11.1336 7.6852 10.9943 7.49118C10.8272 7.21384 10.4647 7.07542 10.2417 6.85352V6.85352Z" fill="#FAF7F4"/>
</svg>
