<svg width="41" height="40" viewBox="0 0 41 40" fill="none" xmlns="http://www.w3.org/2000/svg">
<path d="M24.7276 25.8873L14.9174 23.8373C14.8763 23.9168 14.8306 23.9937 14.7805 24.0678L23.7113 37.0956L24.2501 36.5575L25.7695 27.1091C25.5126 27.0006 25.2847 26.8336 25.1038 26.6215C24.923 26.4094 24.7941 26.1579 24.7276 25.8872V25.8873ZM21.1488 13.0633C20.7813 13.627 20.147 14.0002 19.4245 14.0002C19.3132 14.0002 19.2051 13.9889 19.0988 13.972L14.6249 20.9722L26.5777 15.8284C26.574 15.7803 26.5634 15.7353 26.5634 15.6859C26.5634 15.5853 26.5771 15.4878 26.5934 15.3916L21.1488 13.0634V13.0633ZM21.4738 11.7877L27.2652 14.2639C27.4498 14.1197 27.6609 14.0131 27.8865 13.9502L28.8384 8.03141L25.212 4.405L21.1301 10.7922C21.3301 11.0881 21.4487 11.4315 21.4738 11.7878V11.7877ZM33.609 12.802L29.9746 9.16703L29.1846 14.0745C29.3849 14.1752 29.5648 14.3121 29.7152 14.4783L33.609 12.802V12.802ZM24.9013 24.5947C25.0436 24.3365 25.2479 24.1178 25.4958 23.9584C25.7438 23.7989 26.0275 23.7038 26.3215 23.6816L27.3652 17.1897C27.2834 17.1353 27.2102 17.0703 27.1384 17.0034L15.1168 22.1772C15.1474 22.3028 15.1687 22.4309 15.1787 22.5641L24.9013 24.5947V24.5947ZM34.599 13.7927L30.394 15.602L40.7691 20.0378L40.8066 20.0003L34.599 13.7927ZM27.0846 27.1286L25.8209 34.9855L33.159 27.6473L27.8734 26.5436C27.6707 26.8089 27.3973 27.0116 27.0846 27.1286V27.1286ZM12.8212 25.1086C12.5555 25.1086 12.3012 25.063 12.063 24.9822L9.62555 28.7967L8.68367 27.8555L10.9924 24.243C10.9353 24.1721 10.8821 24.0982 10.833 24.0216L6.65055 25.8223L5.65914 24.8309L10.2373 22.8603L1.96055 21.1328L0.828516 20.0003L1.18664 19.6422L10.7312 21.6347C10.8409 21.4265 10.9815 21.236 11.148 21.0697L6.51555 14.3127L7.45117 13.377L12.291 20.4372C12.4648 20.3968 12.6426 20.3761 12.821 20.3753C13.0254 20.3753 13.2235 20.4041 13.4129 20.4528L17.9418 13.3664C17.5731 12.9839 17.3672 12.4733 17.3674 11.942C17.3674 11.7795 17.388 11.622 17.4237 11.4708L11.7737 9.05516L12.7648 8.06391L18.1179 10.3533C18.3893 10.1296 18.7138 9.97944 19.06 9.91738C19.4063 9.85531 19.7627 9.88339 20.0949 9.99891L24.2705 3.46375L20.807 0L0.806641 20.0003L20.807 40.0006L22.7751 38.0325L13.7774 24.9059C13.4763 25.0394 13.1506 25.1085 12.8212 25.1086V25.1086ZM28.6384 17.4695L27.5765 24.0691C27.7621 24.2182 27.9157 24.4031 28.0284 24.6128C28.141 24.8225 28.2103 25.0528 28.2321 25.2898L34.259 26.548L39.7777 21.0292L29.8165 16.7703C29.5315 17.1498 29.108 17.4012 28.6384 17.4697V17.4695Z" fill="#FAF7F4"/>
</svg>
