<svg width="41" height="40" viewBox="0 0 41 40" fill="none" xmlns="http://www.w3.org/2000/svg">
<path d="M19.4199 0.0107641C19.3338 0.0185831 19.0601 0.0459496 18.8138 0.0654971C13.1325 0.577641 7.81087 3.64268 4.44039 8.35362C2.56356 10.973 1.36317 13.9442 0.909599 17.0913C0.749287 18.1899 0.729736 18.5144 0.729736 20.0039C0.729736 21.4934 0.749287 21.8179 0.909599 22.9165C1.9966 30.4266 7.34166 36.7366 14.5909 39.0744C15.8891 39.4927 17.2576 39.7781 18.8138 39.9502C19.4199 40.0166 22.0396 40.0166 22.6457 39.9502C25.3319 39.653 27.6075 38.9884 29.8519 37.8429C30.196 37.667 30.2625 37.6201 30.2156 37.581C30.1843 37.5575 28.718 35.5911 26.9585 33.2141L23.76 28.8941L19.7522 22.9634C17.5469 19.7029 15.7327 17.0366 15.717 17.0366C15.7014 17.0327 15.6857 19.6677 15.6779 22.8852C15.6662 28.5188 15.6623 28.7455 15.5919 28.8785C15.4902 29.07 15.412 29.1482 15.2478 29.2342C15.1227 29.2968 15.0132 29.3085 14.4228 29.3085H13.7464L13.5665 29.1951C13.4492 29.1209 13.3632 29.0231 13.3045 28.9097L13.2224 28.7338L13.2302 20.8953L13.242 13.0528L13.3632 12.9004C13.4257 12.8183 13.5587 12.7127 13.6525 12.6619C13.8128 12.5837 13.8754 12.5759 14.5518 12.5759C15.3495 12.5759 15.4824 12.6072 15.6897 12.8339C15.7483 12.8965 17.9184 16.1648 20.5147 20.1017C23.111 24.0385 26.6613 29.4141 28.4052 32.053L31.5724 36.8499L31.7327 36.7444C33.152 35.8217 34.6535 34.5081 35.8422 33.1398C38.372 30.2351 40.0025 26.6931 40.5499 22.9165C40.7102 21.8179 40.7297 21.4934 40.7297 20.0039C40.7297 18.5144 40.7102 18.1899 40.5499 17.0913C39.4629 9.58121 34.1178 3.27128 26.8685 0.933405C25.59 0.518998 24.2292 0.233605 22.7043 0.0615876C22.329 0.0224926 19.7444 -0.0205118 19.4199 0.0107641ZM27.6075 12.1067C27.7952 12.2006 27.9477 12.3804 28.0025 12.5681C28.0337 12.6697 28.0416 14.8434 28.0337 19.742L28.022 26.7712L26.7825 24.8712L25.5391 22.9712V17.8615C25.5391 14.558 25.5548 12.701 25.5782 12.6111C25.6408 12.3921 25.7776 12.2201 25.9653 12.1185C26.1256 12.0364 26.1843 12.0285 26.7982 12.0285C27.3769 12.0285 27.4785 12.0364 27.6075 12.1067Z" fill="white"/>
</svg>
