<svg width="37" height="40" viewBox="0 0 37 40" fill="none" xmlns="http://www.w3.org/2000/svg">
<path d="M17.1814 0.426744C18.1728 -0.140965 19.464 -0.143529 20.4545 0.426744C25.4375 3.24378 30.4221 6.05639 35.4043 8.87513C36.3414 9.40324 36.9682 10.4466 36.9587 11.5269V28.4753C36.9656 29.6003 36.2769 30.6686 35.2882 31.1847C30.3216 33.9862 25.3575 36.7912 20.3917 39.5927C19.3798 40.1715 18.0627 40.1269 17.0825 39.5006C15.5935 38.637 14.1019 37.7777 12.6128 36.915C12.3085 36.7335 11.9654 36.589 11.7506 36.2938C11.9405 36.0377 12.2801 36.0058 12.5561 35.8939C13.1776 35.6962 13.7485 35.3788 14.3195 35.0708C14.4639 34.9719 14.6401 35.0098 14.7785 35.0983C16.0518 35.8287 17.3139 36.5803 18.5914 37.3037C18.8639 37.4612 19.1399 37.2522 19.3729 37.1222C24.2467 34.3663 29.1265 31.6208 33.9994 28.864C34.18 28.7771 34.2798 28.5854 34.2651 28.3875C34.2686 22.7966 34.266 17.2047 34.2669 11.6138C34.2875 11.3893 34.1576 11.1829 33.9547 11.091C29.0053 8.30229 24.0584 5.50934 19.1099 2.71995C19.0241 2.66097 18.9226 2.62933 18.8185 2.62918C18.7145 2.62903 18.6128 2.66037 18.5269 2.71909C13.5783 5.50934 8.63231 8.30486 3.68373 11.0934C3.48153 11.1854 3.34583 11.3884 3.36989 11.6138C3.37075 17.2047 3.36989 22.7966 3.36989 28.3884C3.36131 28.4849 3.38251 28.5818 3.43063 28.6659C3.47874 28.75 3.55147 28.8174 3.63902 28.8589C4.95957 29.6081 6.28183 30.352 7.60323 31.0987C8.34766 31.4996 9.26168 31.7378 10.0819 31.4306C10.8056 31.1709 11.313 30.432 11.2992 29.6631C11.306 24.1048 11.2958 18.5457 11.3043 12.9883C11.2862 12.7415 11.5202 12.5377 11.76 12.5609C12.3945 12.5566 13.0298 12.5523 13.6643 12.5626C13.9292 12.5566 14.1114 12.8223 14.0787 13.0709C14.0761 18.6644 14.0855 24.258 14.0744 29.8514C14.0761 31.3421 13.464 32.9642 12.0858 33.6936C10.3879 34.5736 8.28928 34.387 6.61189 33.5432C5.15977 32.818 3.77401 31.9623 2.34766 31.1854C1.35646 30.6722 0.671124 29.5996 0.678101 28.4754V11.5269C0.667706 10.4243 1.31944 9.36192 2.28572 8.84151C7.25152 6.03773 12.2165 3.23181 17.1814 0.426744Z" fill="white"/>
<path d="M21.5135 12.1666C23.6792 12.0271 25.9978 12.0839 27.9468 13.1514C29.4557 13.9694 30.2923 15.6862 30.3189 17.3634C30.2767 17.5897 30.0404 17.7144 29.8245 17.6989C29.1961 17.6981 28.5676 17.7075 27.9392 17.6946C27.6727 17.7049 27.5177 17.459 27.4843 17.2232C27.3037 16.4208 26.8663 15.626 26.1113 15.2389C24.9524 14.6584 23.6086 14.6876 22.3449 14.6997C21.4223 14.7487 20.4303 14.8286 19.6487 15.3714C19.0486 15.7825 18.8664 16.6125 19.0805 17.2809C19.2824 17.7609 19.8362 17.9157 20.2893 18.0585C22.8994 18.7415 25.6652 18.6735 28.2254 19.5723C29.2854 19.9387 30.3223 20.651 30.6851 21.7613C31.1597 23.2495 30.9517 25.0283 29.8934 26.223C29.0352 27.2061 27.7853 27.7412 26.5386 28.0318C24.8802 28.4018 23.1591 28.4112 21.4749 28.2469C19.8912 28.0663 18.2431 27.65 17.0205 26.5704C15.9751 25.6622 15.4645 24.2472 15.5152 22.8814C15.5273 22.6507 15.7568 22.4899 15.9776 22.5088C16.6104 22.5037 17.2432 22.502 17.876 22.5097C18.1288 22.4916 18.3162 22.7101 18.3291 22.9485C18.4459 23.7131 18.7331 24.5156 19.3995 24.9689C20.6856 25.799 22.2993 25.7421 23.7719 25.7654C24.992 25.7112 26.3615 25.6949 27.3571 24.8881C27.8824 24.4279 28.038 23.6581 27.8961 22.9958C27.7423 22.4366 27.1576 22.1761 26.6555 22.0057C24.0789 21.1902 21.2822 21.4861 18.7305 20.564C17.6946 20.1977 16.6929 19.5052 16.2949 18.4404C15.7396 16.9335 15.994 15.0695 17.1632 13.9151C18.3032 12.7669 19.9488 12.3247 21.5135 12.1664V12.1666Z" fill="white"/>
</svg>
