<svg width="42" height="40" viewBox="0 0 42 40" fill="none" xmlns="http://www.w3.org/2000/svg">
<path d="M7.57343 0H34.0803C38.0991 0 41.3483 3.24786 41.3483 7.26496V32.735C41.3483 36.7521 38.0991 40 34.0803 40H7.57343C3.55465 40 0.30542 36.7521 0.30542 32.735V7.26496C0.30542 3.24786 3.55465 0 7.57343 0Z" fill="#182725"/>
<path d="M9.54004 28.0503V10.4605C9.54004 10.3409 9.59134 10.2725 9.71105 10.2725C10.0018 10.2725 10.2754 10.2725 10.6687 10.2554C11.0791 10.2383 11.5067 10.2383 11.9684 10.2212C12.4301 10.2041 12.9261 10.2041 13.4562 10.187C13.9864 10.1699 14.4994 10.1699 15.0124 10.1699C16.4147 10.1699 17.5776 10.3409 18.5353 10.6998C19.3903 10.9904 20.177 11.4691 20.8268 12.1015C21.3741 12.6486 21.8016 13.3152 22.0752 14.0503C22.3317 14.7682 22.4686 15.5033 22.4686 16.2725C22.4686 17.7426 22.1265 18.9562 21.4425 19.9135C20.7584 20.8708 19.8008 21.5887 18.6892 21.999C17.5263 22.4263 16.2437 22.5802 14.8414 22.5802C14.431 22.5802 14.1574 22.5802 13.9864 22.5631C13.8153 22.546 13.5759 22.546 13.251 22.546V28.0332C13.2681 28.1528 13.1826 28.2554 13.0629 28.2725H9.74525C9.60844 28.2725 9.54004 28.2041 9.54004 28.0503ZM13.2681 13.5716V19.3152C13.5075 19.3323 13.7298 19.3494 13.935 19.3494H14.8414C15.5084 19.3494 16.1753 19.2468 16.8081 19.0417C17.3553 18.8879 17.8341 18.5631 18.2104 18.1357C18.5695 17.7084 18.7405 17.1272 18.7405 16.375C18.7576 15.8451 18.6208 15.3152 18.3472 14.8537C18.0564 14.4092 17.646 14.0674 17.1501 13.8793C16.5173 13.6229 15.8333 13.5203 15.1321 13.5374C14.6875 13.5374 14.2942 13.5374 13.9693 13.5545C13.6272 13.5374 13.3878 13.5545 13.2681 13.5716V13.5716ZM33.1397 18.2725C32.6267 17.999 32.0794 17.8109 31.498 17.6913C30.8652 17.5545 30.2325 17.4691 29.5827 17.4691C29.2406 17.452 28.8815 17.5033 28.5566 17.5887C28.3343 17.64 28.1462 17.7597 28.0264 17.9306C27.9409 18.0674 27.8896 18.2383 27.8896 18.3921C27.8896 18.546 27.958 18.6998 28.0606 18.8366C28.2146 19.0246 28.4198 19.1785 28.6421 19.2981C29.0354 19.5033 29.4458 19.6913 29.8563 19.8622C30.7797 20.1699 31.669 20.5973 32.4899 21.1101C33.0542 21.4691 33.5159 21.9477 33.8409 22.5289C34.1145 23.0759 34.2513 23.6742 34.2342 24.2896C34.2513 25.093 34.0119 25.8964 33.5672 26.5631C33.0884 27.2468 32.4215 27.7768 31.6519 28.0844C30.8139 28.4434 29.7879 28.6315 28.5566 28.6315C27.7699 28.6315 27.0004 28.5631 26.2308 28.4092C25.6323 28.3067 25.0337 28.1186 24.4865 27.8622C24.3668 27.7939 24.2813 27.6742 24.2984 27.5374V24.5631C24.2984 24.5118 24.3155 24.4434 24.3668 24.4092C24.4181 24.375 24.4694 24.3921 24.5207 24.4263C25.1876 24.8195 25.8888 25.093 26.6412 25.2639C27.2911 25.4349 27.9751 25.5203 28.6592 25.5203C29.309 25.5203 29.7708 25.4349 30.0786 25.281C30.3522 25.1614 30.5403 24.8708 30.5403 24.5631C30.5403 24.3238 30.4035 24.1015 30.1299 23.8793C29.8563 23.6571 29.2919 23.4007 28.454 23.0759C27.5818 22.7682 26.7781 22.358 26.0256 21.8451C25.4955 21.4691 25.0508 20.9733 24.7259 20.3921C24.4523 19.8451 24.3155 19.2468 24.3326 18.6486C24.3326 17.9135 24.5378 17.2127 24.914 16.5802C25.3416 15.8964 25.9743 15.3494 26.7097 15.0075C27.5134 14.5973 28.5224 14.4092 29.7366 14.4092C30.4377 14.4092 31.156 14.4605 31.8571 14.5631C32.3702 14.6315 32.8661 14.7682 33.3278 14.9562C33.3962 14.9733 33.4646 15.0417 33.4988 15.1101C33.5159 15.1785 33.533 15.2468 33.533 15.3152V18.1015C33.533 18.1699 33.4988 18.2383 33.4475 18.2725C33.2936 18.3067 33.2081 18.3067 33.1397 18.2725V18.2725Z" fill="white"/>
</svg>
