<svg width="60" height="40" viewBox="0 0 60 40" fill="none" xmlns="http://www.w3.org/2000/svg">
<path d="M30 35.001C46.5683 35.001 60 28.2852 60 20.001C60 11.7168 46.5683 5.00098 30 5.00098C13.4317 5.00098 0 11.7168 0 20.001C0 28.2852 13.4317 35.001 30 35.001Z" fill="#182725"/>
<path d="M16.283 22.5165C17.5553 22.5165 18.5052 22.2862 19.1062 21.8322C19.7007 21.3829 20.1114 20.6044 20.3266 19.5185C20.5273 18.5035 20.4508 17.7948 20.0994 17.4123C19.7402 17.0217 18.9634 16.8235 17.7907 16.8235H15.7574L14.6302 22.5165H16.283ZM9.63269 29.5293C9.5383 29.5293 9.44867 29.4879 9.38866 29.4163C9.32855 29.3447 9.30419 29.2505 9.32222 29.1596L12.3096 14.073C12.3385 13.9271 12.4687 13.8218 12.6201 13.8218H19.0586C21.0821 13.8218 22.5882 14.3611 23.5349 15.4248C24.4866 16.4942 24.7805 17.989 24.4084 19.8675C24.2569 20.6329 23.9964 21.3437 23.6342 21.9801C23.2715 22.6172 22.7923 23.2066 22.2094 23.7325C21.5117 24.3734 20.7221 24.8382 19.8645 25.1116C19.0205 25.3815 17.9367 25.5183 16.643 25.5183H14.036L13.2915 29.278C13.2626 29.4239 13.1324 29.5293 12.981 29.5293H9.63269Z" fill="#182725"/>
<path d="M16.0182 17.1341H17.7907C19.206 17.1341 19.6976 17.4389 19.8647 17.6206C20.1418 17.9222 20.1941 18.5582 20.016 19.4596C19.8159 20.4688 19.4449 21.1844 18.9132 21.5862C18.3688 21.9976 17.4838 22.206 16.283 22.206H15.0139L16.0182 17.1341ZM19.0586 13.5113H12.62C12.3171 13.5113 12.0568 13.722 11.999 14.0138L9.01164 29.1004C8.97557 29.2824 9.02429 29.4707 9.14441 29.6139C9.26463 29.757 9.44369 29.8398 9.63267 29.8398H12.9809C13.2838 29.8398 13.5442 29.6291 13.602 29.3373L14.2967 25.8289H16.643C17.9699 25.8289 19.0868 25.6868 19.9627 25.4069C20.8633 25.1196 21.692 24.6326 22.4255 23.9594C23.032 23.4116 23.5317 22.7968 23.9103 22.1317C24.289 21.4665 24.561 20.7246 24.7189 19.9268C25.1107 17.9493 24.7924 16.3658 23.7731 15.2206C22.7637 14.0864 21.1774 13.5113 19.0586 13.5113ZM14.2463 22.8271H16.283C17.6329 22.8271 18.6384 22.5775 19.2991 22.0783C19.9599 21.579 20.4056 20.7456 20.6371 19.5778C20.8587 18.4566 20.7578 17.6654 20.3344 17.2045C19.9105 16.7435 19.0627 16.513 17.7907 16.513H15.4966L14.2463 22.8271M19.0586 14.1323C20.9955 14.1323 22.4085 14.6312 23.2966 15.6292C24.1847 16.6271 24.4521 18.02 24.0978 19.8083C23.9519 20.545 23.7053 21.2186 23.358 21.8287C23.0103 22.4393 22.5563 22.9977 21.9953 23.5039C21.3267 24.1181 20.584 24.5557 19.7667 24.8163C18.9494 25.0777 17.9085 25.2078 16.643 25.2078H13.7751L12.9809 29.2188H9.63267L12.62 14.1323H19.0586" fill="#FAF7F4"/>
<path d="M32.0851 25.5195C31.9906 25.5195 31.9011 25.4781 31.8411 25.4065C31.7809 25.335 31.7565 25.2409 31.7746 25.1498L33.096 18.4746C33.2217 17.8398 33.1907 17.3841 33.0088 17.1916C32.8974 17.0739 32.5629 16.8765 31.5739 16.8765H29.1798L27.5184 25.2682C27.4895 25.4142 27.3592 25.5195 27.2078 25.5195H23.886C23.7915 25.5195 23.7019 25.4781 23.6418 25.4065C23.5817 25.335 23.5574 25.2408 23.5754 25.1498L26.5627 10.0632C26.5916 9.91738 26.7219 9.81201 26.8733 9.81201H30.1951C30.2896 9.81201 30.3792 9.85341 30.4393 9.92494C30.4994 9.99656 30.5237 10.0907 30.5057 10.1817L29.7848 13.823H32.3603C34.3223 13.823 35.6527 14.1625 36.4276 14.861C37.2174 15.5735 37.4639 16.7129 37.1602 18.2477L35.7703 25.2682C35.7414 25.4142 35.6112 25.5195 35.4597 25.5195H32.0851Z" fill="#182725"/>
<path d="M30.1951 9.5015H26.8733C26.5703 9.5015 26.3099 9.71224 26.2522 10.004L23.2648 25.0906C23.2287 25.2727 23.2775 25.461 23.3977 25.6041C23.5179 25.7473 23.697 25.8301 23.8859 25.8301H27.2078C27.5107 25.8301 27.7711 25.6193 27.8289 25.3275L29.4406 17.1871H31.5739C32.5612 17.1871 32.7685 17.3941 32.7768 17.403C32.8367 17.4662 32.9155 17.7592 32.7854 18.4154L31.464 25.0906C31.4279 25.2727 31.4766 25.461 31.5968 25.6041C31.7171 25.7473 31.8961 25.8301 32.0851 25.8301H35.4597C35.7625 25.8301 36.023 25.6193 36.0808 25.3275L37.4706 18.307C37.7968 16.6591 37.5177 15.4228 36.6416 14.6324C35.8056 13.8788 34.4051 13.5125 32.3602 13.5125H30.1684L30.8163 10.2411C30.8522 10.059 30.8036 9.87061 30.6834 9.72756C30.5632 9.58441 30.3841 9.5015 30.1951 9.5015ZM30.1951 10.1226L29.4009 14.1335H32.3602C34.2223 14.1335 35.5066 14.4526 36.2135 15.0898C36.9203 15.7274 37.1321 16.7605 36.8496 18.1886L35.4597 25.209H32.0851L33.4066 18.5339C33.5569 17.7746 33.5017 17.2566 33.2406 16.9805C32.9794 16.7043 32.4237 16.566 31.5739 16.566H28.9189L27.2078 25.209H23.8859L26.8733 10.1226H30.1951Z" fill="#FAF7F4"/>
<path d="M42.4166 22.5165C43.6889 22.5165 44.6387 22.2862 45.2397 21.8322C45.8343 21.383 46.2449 20.6045 46.4602 19.5185C46.6609 18.5035 46.5845 17.7948 46.233 17.4123C45.8737 17.0217 45.0969 16.8235 43.9242 16.8235H41.891L40.7637 22.5165H42.4166ZM35.7663 29.5293C35.6719 29.5293 35.5823 29.4879 35.5223 29.4163C35.4622 29.3447 35.4377 29.2505 35.4558 29.1596L38.4431 14.073C38.4721 13.9271 38.6022 13.8218 38.7538 13.8218H45.1921C47.2157 13.8218 48.7217 14.3611 49.6685 15.4248C50.6202 16.4941 50.914 17.9888 50.542 19.8675C50.3903 20.6329 50.13 21.3437 49.7677 21.9801C49.4051 22.6172 48.9258 23.2066 48.3429 23.7325C47.6452 24.3734 46.8556 24.8382 45.998 25.1116C45.1541 25.3815 44.0702 25.5183 42.7766 25.5183H40.1694L39.4252 29.278C39.3962 29.4239 39.2661 29.5293 39.1145 29.5293H35.7663Z" fill="#182725"/>
<path d="M42.1516 17.1341H43.9241C45.3394 17.1341 45.8311 17.4389 45.9981 17.6206C46.2754 17.9222 46.3277 18.5582 46.1495 19.4595C45.9493 20.4688 45.5782 21.1844 45.0466 21.5862C44.5022 21.9976 43.6173 22.206 42.4164 22.206H41.1475L42.1516 17.1341ZM45.192 13.5113H38.7536C38.4507 13.5113 38.1903 13.722 38.1325 14.0138L35.1452 29.1004C35.1091 29.2824 35.1578 29.4707 35.278 29.6139C35.3982 29.757 35.5772 29.8398 35.7662 29.8398H39.1144C39.4173 29.8398 39.6778 29.6291 39.7356 29.3373L40.4302 25.8289H42.7765C44.1033 25.8289 45.2203 25.6868 46.0961 25.4069C46.9968 25.1196 47.8257 24.6325 48.5591 23.9592C49.1657 23.4115 49.6651 22.7968 50.0437 22.1317C50.4224 21.4665 50.6945 20.7246 50.8523 19.9268C51.2441 17.9492 50.9258 16.3657 49.9065 15.2205C48.8971 14.0864 47.3109 13.5113 45.192 13.5113ZM40.3799 22.8271H42.4164C43.7664 22.8271 44.7719 22.5775 45.4326 22.0783C46.0935 21.579 46.539 20.7456 46.7706 19.5778C46.9923 18.4566 46.8913 17.6654 46.4678 17.2045C46.0439 16.7435 45.1961 16.513 43.9241 16.513H41.6301L40.3799 22.8271ZM45.192 14.1323C47.1289 14.1323 48.5419 14.6312 49.4301 15.6292C50.3182 16.6271 50.5855 18.02 50.2312 19.8083C50.0854 20.545 49.8387 21.2186 49.4914 21.8287C49.1438 22.4393 48.6898 22.9977 48.1287 23.5039C47.4602 24.1181 46.7174 24.5557 45.9002 24.8163C45.0829 25.0777 44.0419 25.2078 42.7765 25.2078H39.9085L39.1144 29.2188H35.7662L38.7536 14.1323H45.192" fill="#FAF7F4"/>
</svg>
