<svg width="41" height="40" viewBox="0 0 41 40" fill="none" xmlns="http://www.w3.org/2000/svg">
<path d="M32.0932 7.61914H30.1885C29.6625 7.61914 29.2361 8.04554 29.2361 8.57152C29.2361 9.09751 29.6625 9.5239 30.1885 9.5239H32.0932C32.6192 9.5239 33.0456 9.09751 33.0456 8.57152C33.0456 8.04554 32.6192 7.61914 32.0932 7.61914Z" fill="#182725"/>
<path d="M11.1407 38.0957H1.61693C1.09095 38.0957 0.664551 38.5221 0.664551 39.0481C0.664551 39.5741 1.09095 40.0005 1.61693 40.0005H11.1407C11.6667 40.0005 12.0931 39.5741 12.0931 39.0481C12.0931 38.5221 11.6667 38.0957 11.1407 38.0957Z" fill="#969696"/>
<path d="M30.1882 22.8574H24.4739C23.9479 22.8574 23.5215 23.2838 23.5215 23.8098C23.5215 24.3358 23.9479 24.7622 24.4739 24.7622H30.1882C30.7141 24.7622 31.1405 24.3358 31.1405 23.8098C31.1405 23.2838 30.7141 22.8574 30.1882 22.8574Z" fill="#FAF7F4"/>
<path d="M20.6642 22.8574H13.0452C12.5192 22.8574 12.0928 23.2838 12.0928 23.8098C12.0928 24.3358 12.5192 24.7622 13.0452 24.7622H20.6642C21.1902 24.7622 21.6166 24.3358 21.6166 23.8098C21.6166 23.2838 21.1902 22.8574 20.6642 22.8574Z" fill="#969696"/>
<path d="M9.23598 22.8574H1.61693C1.09095 22.8574 0.664551 23.2838 0.664551 23.8098C0.664551 24.3358 1.09095 24.7622 1.61693 24.7622H9.23598C9.76196 24.7622 10.1884 24.3358 10.1884 23.8098C10.1884 23.2838 9.76196 22.8574 9.23598 22.8574Z" fill="#182725"/>
<path d="M11.1407 30.4766H1.61693C1.09095 30.4766 0.664551 30.903 0.664551 31.4289C0.664551 31.9549 1.09095 32.3813 1.61693 32.3813H11.1407C11.6667 32.3813 12.0931 31.9549 12.0931 31.4289C12.0931 30.903 11.6667 30.4766 11.1407 30.4766Z" fill="#FAF7F4"/>
<path d="M11.1407 15.2383H1.61693C1.09095 15.2383 0.664551 15.6647 0.664551 16.1907C0.664551 16.7166 1.09095 17.143 1.61693 17.143H11.1407C11.6667 17.143 12.0931 16.7166 12.0931 16.1907C12.0931 15.6647 11.6667 15.2383 11.1407 15.2383Z" fill="#FAF7F4"/>
<path d="M30.1885 3.80957H11.1409C10.6149 3.80957 10.1885 4.23597 10.1885 4.76195C10.1885 5.28794 10.6149 5.71433 11.1409 5.71433H30.1885C30.7145 5.71433 31.1409 5.28794 31.1409 4.76195C31.1409 4.23597 30.7145 3.80957 30.1885 3.80957Z" fill="white"/>
<path d="M7.33122 3.80957H1.61693C1.09095 3.80957 0.664551 4.23597 0.664551 4.76195C0.664551 5.28794 1.09095 5.71433 1.61693 5.71433H7.33122C7.8572 5.71433 8.2836 5.28794 8.2836 4.76195C8.2836 4.23597 7.8572 3.80957 7.33122 3.80957Z" fill="#969696"/>
<path d="M11.1408 34.2861H9.23607C8.71009 34.2861 8.28369 34.7125 8.28369 35.2385C8.28369 35.7645 8.71009 36.1909 9.23607 36.1909H11.1408C11.6668 36.1909 12.0932 35.7645 12.0932 35.2385C12.0932 34.7125 11.6668 34.2861 11.1408 34.2861Z" fill="white"/>
<path d="M11.1408 11.4287H9.23607C8.71009 11.4287 8.28369 11.8551 8.28369 12.3811C8.28369 12.9071 8.71009 13.3335 9.23607 13.3335H11.1408C11.6668 13.3335 12.0932 12.9071 12.0932 12.3811C12.0932 11.8551 11.6668 11.4287 11.1408 11.4287Z" fill="#182725"/>
<path d="M5.42646 34.2861H1.61693C1.09095 34.2861 0.664551 34.7125 0.664551 35.2385C0.664551 35.7645 1.09095 36.1909 1.61693 36.1909H5.42646C5.95244 36.1909 6.37884 35.7645 6.37884 35.2385C6.37884 34.7125 5.95244 34.2861 5.42646 34.2861Z" fill="#182725"/>
<path d="M5.42646 11.4287H1.61693C1.09095 11.4287 0.664551 11.8551 0.664551 12.3811C0.664551 12.9071 1.09095 13.3335 1.61693 13.3335H5.42646C5.95244 13.3335 6.37884 12.9071 6.37884 12.3811C6.37884 11.8551 5.95244 11.4287 5.42646 11.4287Z" fill="white"/>
<path opacity="0.5" d="M28.2832 34.2861H26.3784C25.8524 34.2861 25.426 34.7125 25.426 35.2385C25.426 35.7645 25.8524 36.1909 26.3784 36.1909H28.2832C28.8092 36.1909 29.2355 35.7645 29.2355 35.2385C29.2355 34.7125 28.8092 34.2861 28.2832 34.2861Z" fill="#BDD3CC"/>
<path opacity="0.5" d="M22.5687 34.2861H14.9497C14.4237 34.2861 13.9973 34.7125 13.9973 35.2385C13.9973 35.7645 14.4237 36.1909 14.9497 36.1909H22.5687C23.0947 36.1909 23.5211 35.7645 23.5211 35.2385C23.5211 34.7125 23.0947 34.2861 22.5687 34.2861Z" fill="#BDD3CC"/>
<path opacity="0.5" d="M39.7116 34.2861H32.0925C31.5665 34.2861 31.1401 34.7125 31.1401 35.2385C31.1401 35.7645 31.5665 36.1909 32.0925 36.1909H39.7116C40.2376 36.1909 40.6639 35.7645 40.6639 35.2385C40.6639 34.7125 40.2376 34.2861 39.7116 34.2861Z" fill="#BDD3CC"/>
<path d="M32.0931 19.0479H16.855C16.329 19.0479 15.9026 19.4742 15.9026 20.0002C15.9026 20.5262 16.329 20.9526 16.855 20.9526H32.0931C32.619 20.9526 33.0454 20.5262 33.0454 20.0002C33.0454 19.4742 32.619 19.0479 32.0931 19.0479Z" fill="#182725"/>
<path d="M13.0456 19.0479H7.33129C6.8053 19.0479 6.37891 19.4742 6.37891 20.0002C6.37891 20.5262 6.8053 20.9526 7.33129 20.9526H13.0456C13.5716 20.9526 13.998 20.5262 13.998 20.0002C13.998 19.4742 13.5716 19.0479 13.0456 19.0479Z" fill="white"/>
<path d="M3.52169 19.0479H1.61693C1.09095 19.0479 0.664551 19.4742 0.664551 20.0002C0.664551 20.5262 1.09095 20.9526 1.61693 20.9526H3.52169C4.04768 20.9526 4.47407 20.5262 4.47407 20.0002C4.47407 19.4742 4.04768 19.0479 3.52169 19.0479Z" fill="#969696"/>
<path d="M26.3788 7.61914H18.7598C18.2338 7.61914 17.8074 8.04554 17.8074 8.57152C17.8074 9.09751 18.2338 9.5239 18.7598 9.5239H26.3788C26.9048 9.5239 27.3312 9.09751 27.3312 8.57152C27.3312 8.04554 26.9048 7.61914 26.3788 7.61914Z" fill="#FAF7F4"/>
<path d="M14.9503 7.61914H1.61693C1.09095 7.61914 0.664551 8.04554 0.664551 8.57152C0.664551 9.09751 1.09095 9.5239 1.61693 9.5239H14.9503C15.4763 9.5239 15.9026 9.09751 15.9026 8.57152C15.9026 8.04554 15.4763 7.61914 14.9503 7.61914Z" fill="#182725"/>
<path d="M24.4741 26.667H7.33129C6.8053 26.667 6.37891 27.0934 6.37891 27.6194C6.37891 28.1454 6.8053 28.5718 7.33129 28.5718H24.4741C25.0001 28.5718 25.4265 28.1454 25.4265 27.6194C25.4265 27.0934 25.0001 26.667 24.4741 26.667Z" fill="white"/>
<path d="M3.52169 26.667H1.61693C1.09095 26.667 0.664551 27.0934 0.664551 27.6194C0.664551 28.1454 1.09095 28.5718 1.61693 28.5718H3.52169C4.04768 28.5718 4.47407 28.1454 4.47407 27.6194C4.47407 27.0934 4.04768 26.667 3.52169 26.667Z" fill="#FAF7F4"/>
<path d="M33.9979 11.4287H24.4741C23.9481 11.4287 23.5217 11.8551 23.5217 12.3811C23.5217 12.9071 23.9481 13.3335 24.4741 13.3335H33.9979C34.5239 13.3335 34.9503 12.9071 34.9503 12.3811C34.9503 11.8551 34.5239 11.4287 33.9979 11.4287Z" fill="#969696"/>
<path d="M33.9979 15.2383H24.4741C23.9481 15.2383 23.5217 15.6647 23.5217 16.1907C23.5217 16.7166 23.9481 17.143 24.4741 17.143H33.9979C34.5239 17.143 34.9503 16.7166 34.9503 16.1907C34.9503 15.6647 34.5239 15.2383 33.9979 15.2383Z" fill="white"/>
<path d="M24.4741 0H1.61693C1.09095 0 0.664551 0.426395 0.664551 0.952381C0.664551 1.47837 1.09095 1.90476 1.61693 1.90476H24.4741C25.0001 1.90476 25.4265 1.47837 25.4265 0.952381C25.4265 0.426395 25.0001 0 24.4741 0Z" fill="#182725"/>
<path opacity="0.5" d="M39.7123 0H28.2837C27.7577 0 27.3313 0.426395 27.3313 0.952381C27.3313 1.47837 27.7577 1.90476 28.2837 1.90476H39.7123C40.2382 1.90476 40.6646 1.47837 40.6646 0.952381C40.6646 0.426395 40.2382 0 39.7123 0Z" fill="#BDD3CC"/>
<path opacity="0.5" d="M32.0927 26.667H28.2832C27.7572 26.667 27.3308 27.0934 27.3308 27.6194C27.3308 28.1454 27.7572 28.5718 28.2832 28.5718H32.0927C32.6187 28.5718 33.0451 28.1454 33.0451 27.6194C33.0451 27.0934 32.6187 26.667 32.0927 26.667Z" fill="#BDD3CC"/>
<path opacity="0.5" d="M39.7111 26.667H35.9016C35.3756 26.667 34.9492 27.0934 34.9492 27.6194C34.9492 28.1454 35.3756 28.5718 35.9016 28.5718H39.7111C40.2371 28.5718 40.6635 28.1454 40.6635 27.6194C40.6635 27.0934 40.2371 26.667 39.7111 26.667Z" fill="#BDD3CC"/>
<path opacity="0.5" d="M39.7113 22.8574H33.9971C33.4711 22.8574 33.0447 23.2838 33.0447 23.8098C33.0447 24.3358 33.4711 24.7622 33.9971 24.7622H39.7113C40.2373 24.7622 40.6637 24.3358 40.6637 23.8098C40.6637 23.2838 40.2373 22.8574 39.7113 22.8574Z" fill="#BDD3CC"/>
<path opacity="0.5" d="M39.7113 3.80957H33.9971C33.4711 3.80957 33.0447 4.23597 33.0447 4.76195C33.0447 5.28794 33.4711 5.71433 33.9971 5.71433H39.7113C40.2373 5.71433 40.6637 5.28794 40.6637 4.76195C40.6637 4.23597 40.2373 3.80957 39.7113 3.80957Z" fill="#BDD3CC"/>
<path opacity="0.5" d="M39.7111 19.0479H35.9016C35.3756 19.0479 34.9492 19.4742 34.9492 20.0002C34.9492 20.5262 35.3756 20.9526 35.9016 20.9526H39.7111C40.2371 20.9526 40.6635 20.5262 40.6635 20.0002C40.6635 19.4742 40.2371 19.0479 39.7111 19.0479Z" fill="#BDD3CC"/>
<path opacity="0.5" d="M39.7111 7.61914H35.9016C35.3756 7.61914 34.9492 8.04554 34.9492 8.57152C34.9492 9.09751 35.3756 9.5239 35.9016 9.5239H39.7111C40.2371 9.5239 40.6635 9.09751 40.6635 8.57152C40.6635 8.04554 40.2371 7.61914 39.7111 7.61914Z" fill="#BDD3CC"/>
<path opacity="0.5" d="M39.7111 11.4287H37.8064C37.2804 11.4287 36.854 11.8551 36.854 12.3811C36.854 12.9071 37.2804 13.3335 37.8064 13.3335H39.7111C40.2371 13.3335 40.6635 12.9071 40.6635 12.3811C40.6635 11.8551 40.2371 11.4287 39.7111 11.4287Z" fill="#BDD3CC"/>
<path opacity="0.5" d="M39.7111 15.2383H37.8064C37.2804 15.2383 36.854 15.6647 36.854 16.1907C36.854 16.7166 37.2804 17.143 37.8064 17.143H39.7111C40.2371 17.143 40.6635 16.7166 40.6635 16.1907C40.6635 15.6647 40.2371 15.2383 39.7111 15.2383Z" fill="#BDD3CC"/>
<path opacity="0.5" d="M39.7117 30.4766H22.5688C22.0429 30.4766 21.6165 30.903 21.6165 31.4289C21.6165 31.9549 22.0429 32.3813 22.5688 32.3813H39.7117C40.2377 32.3813 40.6641 31.9549 40.6641 31.4289C40.6641 30.903 40.2377 30.4766 39.7117 30.4766Z" fill="#BDD3CC"/>
<path opacity="0.5" d="M18.7592 30.4766H14.9497C14.4237 30.4766 13.9973 30.903 13.9973 31.4289C13.9973 31.9549 14.4237 32.3813 14.9497 32.3813H18.7592C19.2852 32.3813 19.7116 31.9549 19.7116 31.4289C19.7116 30.903 19.2852 30.4766 18.7592 30.4766Z" fill="#BDD3CC"/>
<path opacity="0.5" d="M39.7118 38.0957H30.188C29.662 38.0957 29.2356 38.5221 29.2356 39.0481C29.2356 39.5741 29.662 40.0005 30.188 40.0005H39.7118C40.2378 40.0005 40.6642 39.5741 40.6642 39.0481C40.6642 38.5221 40.2378 38.0957 39.7118 38.0957Z" fill="#BDD3CC"/>
<path opacity="0.5" d="M26.3783 38.0957H14.9497C14.4237 38.0957 13.9973 38.5221 13.9973 39.0481C13.9973 39.5741 14.4237 40.0005 14.9497 40.0005H26.3783C26.9043 40.0005 27.3306 39.5741 27.3306 39.0481C27.3306 38.5221 26.9043 38.0957 26.3783 38.0957Z" fill="#BDD3CC"/>
<path opacity="0.5" d="M20.6645 11.4287H14.9502C14.4242 11.4287 13.9978 11.8551 13.9978 12.3811C13.9978 12.9071 14.4242 13.3335 14.9502 13.3335H20.6645C21.1905 13.3335 21.6169 12.9071 21.6169 12.3811C21.6169 11.8551 21.1905 11.4287 20.6645 11.4287Z" fill="#BDD3CC"/>
<path opacity="0.5" d="M20.6645 15.2383H14.9502C14.4242 15.2383 13.9978 15.6647 13.9978 16.1907C13.9978 16.7166 14.4242 17.143 14.9502 17.143H20.6645C21.1905 17.143 21.6169 16.7166 21.6169 16.1907C21.6169 15.6647 21.1905 15.2383 20.6645 15.2383Z" fill="#BDD3CC"/>
</svg>
