<svg width="60" height="40" viewBox="0 0 60 40" fill="none" xmlns="http://www.w3.org/2000/svg">
<mask id="mask0_1923_68" style="mask-type:luminance" maskUnits="userSpaceOnUse" x="0" y="8" width="60" height="24">
<path d="M60 8.70508H0V31.2953H60V8.70508Z" fill="white"/>
</mask>
<g mask="url(#mask0_1923_68)">
<path d="M44.1594 27.2486L45.8926 22.8658H50.8976L48.522 16.2167L51.4929 8.70508L60.0007 31.2953H53.7268L52.2731 27.2486H44.1594Z" fill="#BDD3CC"/>
<path d="M38.8058 31.2953L47.9143 8.70508H41.8753L35.6446 23.3032L31.2145 8.70508H26.5726L21.8159 23.3032L18.4603 16.6514L15.4246 26.0055L18.5075 31.2953H24.4507L28.7498 18.2036L32.8491 31.2953H38.8058Z" fill="white"/>
<path d="M5.7326 23.5407H9.45131C10.5784 23.5407 11.5813 23.4152 12.4614 23.1628L13.4238 20.2L16.1126 11.9176C15.9074 11.5937 15.6739 11.2859 15.4107 10.997C14.0298 9.46906 12.0105 8.70508 9.35277 8.70508H0V31.2953H5.73125V23.5407H5.7326ZM10.6553 13.9032C11.1939 14.4458 11.4639 15.172 11.4639 16.0817C11.4639 16.9983 11.2263 17.7258 10.7525 18.263C10.2328 18.8596 9.27583 19.1579 7.88149 19.1579H5.7326V13.0892H7.89769C9.19754 13.0892 10.1168 13.3605 10.6553 13.9032Z" fill="#BDD3CC"/>
</g>
</svg>
