<svg width="45" height="40" viewBox="0 0 45 40" fill="none" xmlns="http://www.w3.org/2000/svg">
<path d="M35.359 12.0809C36.0867 8.55597 36.2429 5.85242 35.7725 3.88926C35.4927 2.72169 34.9813 1.7692 34.2036 1.08199C33.3825 0.356482 32.3444 0.000473463 31.178 0.000473463C29.2538 0.000473463 27.2309 0.877017 25.0692 2.54222C24.1874 3.22142 23.2723 4.0401 22.3219 4.9987C22.2462 4.90142 22.1607 4.80966 22.0655 4.72485C19.3785 2.33293 17.1163 0.846806 15.1815 0.2738C14.031 -0.0669092 12.9509 -0.0993689 11.9672 0.231301C10.929 0.580346 10.1017 1.30187 9.51797 2.3125C8.55468 3.98039 8.30065 6.17202 8.65979 8.87812C8.80617 9.98116 9.05643 11.1827 9.41002 12.4845C9.27662 12.5006 9.14289 12.5302 9.01051 12.574C5.60135 13.7026 3.18732 14.9162 1.7258 16.3031C0.856241 17.1283 0.288406 18.047 0.0831369 19.064C-0.133525 20.1373 0.0777378 21.214 0.660741 22.2238C1.62223 23.8893 3.39013 25.2029 5.90873 26.2433C6.92003 26.6611 8.06426 27.0394 9.34269 27.3797C9.28436 27.5113 9.2391 27.651 9.20884 27.7976C8.48113 31.3225 8.32496 34.026 8.79535 35.9892C9.0751 37.1568 9.58656 38.1092 10.3643 38.7965C11.1853 39.522 12.2234 39.878 13.3898 39.878C15.3141 39.878 17.3369 39.0014 19.4987 37.3362C20.3898 36.6498 21.315 35.8209 22.2763 34.8491C22.3752 35.0036 22.4966 35.1473 22.6403 35.2752C25.3272 37.6671 27.5894 39.1532 29.5243 39.7262C30.6747 40.0669 31.7549 40.0994 32.7385 39.7687C33.7768 39.4197 34.6041 38.6981 35.1878 37.6875C36.1511 36.0196 36.4051 33.828 36.046 31.1219C35.8943 29.979 35.6311 28.7303 35.257 27.3739C35.4032 27.3591 35.55 27.3282 35.6952 27.2801C39.1044 26.1516 41.5184 24.938 42.9799 23.551C43.8495 22.7258 44.4173 21.8071 44.6226 20.7902C44.8393 19.7168 44.628 18.6402 44.045 17.6303C43.0835 15.9648 41.3156 14.6513 38.797 13.6108C37.7556 13.1806 36.5732 12.7922 35.2484 12.4441C35.2956 12.3287 35.3329 12.2073 35.359 12.0809Z" fill="#182725"/>
<path fill-rule="evenodd" clip-rule="evenodd" d="M18.9169 12.7061H25.7902C26.2116 12.7061 26.6009 12.9315 26.8106 13.297L30.2535 19.297C30.4615 19.6596 30.4615 20.1054 30.2535 20.468L26.8106 26.468C26.6009 26.8336 26.2116 27.059 25.7902 27.059H18.9169C18.4955 27.059 18.1063 26.8336 17.8965 26.468L14.4537 20.468C14.2456 20.1054 14.2456 19.6596 14.4537 19.297L17.8965 13.297C18.1063 12.9315 18.4955 12.7061 18.9169 12.7061ZM24.9383 14.1829C25.36 14.1829 25.7494 14.4085 25.9591 14.7744L28.5513 19.2975C28.759 19.6599 28.759 20.1052 28.5513 20.4675L25.9591 24.9907C25.7494 25.3565 25.36 25.5822 24.9383 25.5822H19.7688C19.3471 25.5822 18.9577 25.3565 18.7481 24.9907L16.1558 20.4675C15.9481 20.1052 15.9481 19.6599 16.1558 19.2975L18.7481 14.7744C18.9577 14.4085 19.3471 14.1829 19.7688 14.1829H24.9383ZM24.019 15.7982H20.6881C20.2669 15.7982 19.8778 16.0234 19.668 16.3886L17.9975 19.2965C17.789 19.6594 17.789 20.1057 17.9975 20.4686L19.668 23.3764C19.8778 23.7417 20.2669 23.9669 20.6881 23.9669H24.019C24.4402 23.9669 24.8293 23.7417 25.0391 23.3764L26.7096 20.4686C26.9181 20.1057 26.9181 19.6594 26.7096 19.2965L25.0391 16.3886C24.8293 16.0234 24.4402 15.7982 24.019 15.7982ZM23.134 17.3442C23.5549 17.3442 23.9437 17.5691 24.1536 17.9339L24.9373 19.2957C25.1464 19.659 25.1464 20.1061 24.9373 20.4693L24.1536 21.8312C23.9437 22.196 23.5549 22.4208 23.134 22.4208H21.5732C21.1523 22.4208 20.7634 22.196 20.5535 21.8312L19.7698 20.4693C19.5607 20.1061 19.5607 19.659 19.7698 19.2957L20.5535 17.9339C20.7634 17.5691 21.1523 17.3442 21.5732 17.3442H23.134ZM22.3539 18.8672C21.9905 18.8672 21.6552 19.0607 21.4737 19.3749C21.2922 19.689 21.2922 20.0761 21.4737 20.3902C21.6552 20.7043 21.9905 20.8978 22.3533 20.8978C22.7167 20.8978 23.052 20.7043 23.2335 20.3902C23.4149 20.0761 23.4149 19.689 23.2335 19.3749C23.052 19.0607 22.7167 18.8672 22.3539 18.8672ZM14.1177 19.8828H15.9454Z" fill="#FAF7F4"/>
<path fill-rule="evenodd" clip-rule="evenodd" d="M12.9082 23.1435C13.2167 22.9671 13.6084 23.0768 13.783 23.3885L13.8946 23.5872C14.7896 25.1729 15.722 26.6781 16.6918 28.1028C17.8371 29.7853 19.1251 31.4885 20.5558 33.2125C20.7804 33.4831 20.7493 33.8854 20.486 34.1176L20.3421 34.2439C15.6109 38.3777 12.5359 39.2034 11.1171 36.721C9.72934 34.2929 10.2316 29.8788 12.6238 23.4788C12.6768 23.3368 12.7775 23.2182 12.9082 23.1435ZM33.0668 28.0102C33.4084 27.9499 33.7353 28.1751 33.8022 28.5168L33.8382 28.7031C35.0075 34.8229 34.1842 37.8828 31.3683 37.8828C28.614 37.8828 25.1078 35.2732 20.85 30.0539C20.7555 29.9381 20.7045 29.7928 20.7058 29.6432C20.7089 29.29 20.9966 29.0063 21.3484 29.0093L21.5728 29.0109C23.366 29.0207 25.1092 28.9585 26.8024 28.8243C28.802 28.6658 30.8902 28.3945 33.0668 28.0102ZM34.6843 15.015C34.8075 14.6834 35.1784 14.5095 35.5186 14.6238L35.704 14.6865C41.7843 16.7576 44.0946 19.0338 42.6348 21.515C41.207 23.942 37.0551 25.7088 30.1791 26.8154C30.0266 26.84 29.8702 26.8113 29.737 26.7343C29.4227 26.5526 29.318 26.1553 29.5032 25.8469L29.6209 25.65C30.5593 24.0749 31.4073 22.5073 32.1651 20.9474C33.0599 19.1051 33.8997 17.1277 34.6843 15.015ZM14.5266 13.1855C14.6791 13.1609 14.8355 13.1896 14.9687 13.2666C15.283 13.4483 15.3877 13.8456 15.2025 14.154L15.0848 14.3509C14.1465 15.926 13.2984 17.4936 12.5407 19.0536C11.6458 20.8958 10.806 22.8732 10.0214 24.9859C9.89823 25.3175 9.52735 25.4914 9.18707 25.3772L9.00167 25.3145C2.92138 23.2433 0.611124 20.9671 2.07089 18.4859C3.49876 16.059 7.65066 14.2921 14.5266 13.1855ZM24.3636 5.75702C29.0948 1.62321 32.1698 0.797506 33.5886 3.27991C34.9764 5.70806 34.4742 10.1221 32.082 16.5221C32.0289 16.6641 31.9282 16.7827 31.7975 16.8575C31.489 17.0338 31.0973 16.9241 30.9228 16.6124L30.8111 16.4137C29.9161 14.828 28.9837 13.3228 28.0139 11.8981C26.8686 10.2157 25.5807 8.51243 24.1499 6.78843C23.9254 6.51784 23.9564 6.11548 24.2198 5.8833L24.3636 5.75702ZM13.5727 1.88281C16.327 1.88281 19.8332 4.49246 24.091 9.71175C24.1855 9.82751 24.2365 9.97284 24.2352 10.1225C24.2321 10.4756 23.9444 10.7594 23.5926 10.7563L23.3682 10.7547C21.575 10.7449 19.8318 10.8071 18.1386 10.9413C16.139 11.0998 14.0508 11.3711 11.8742 11.7554C11.5326 11.8157 11.2057 11.5905 11.1388 11.2489L11.1028 11.0625C9.93347 4.9427 10.7568 1.88281 13.5727 1.88281Z" fill="#BDD3CC"/>
</svg>
