<svg width="41" height="40" viewBox="0 0 41 40" fill="none" xmlns="http://www.w3.org/2000/svg">
<path d="M20.4707 40C31.5164 40 40.4707 31.0457 40.4707 20C40.4707 8.95431 31.5164 0 20.4707 0C9.42501 0 0.470703 8.95431 0.470703 20C0.470703 31.0457 9.42501 40 20.4707 40Z" fill="white"/>
<path d="M12.0294 12.831C11.9335 12.8517 11.8559 12.9021 11.7892 12.9927C11.7205 13.0911 11.6962 13.2531 11.7315 13.36C11.7613 13.4535 11.9239 13.643 12.1023 13.7718C11.9249 14.0033 11.5837 14.4695 11.4188 14.7085C10.2202 16.4447 9.51755 18.0331 9.42832 19.1783C9.38008 19.7974 9.50033 20.2303 9.78532 20.5668C9.99611 20.8148 10.2428 20.9558 10.6403 21.0404C10.9664 21.1097 11.4655 21.1065 11.9692 21.0296C11.6526 21.4838 11.2004 22.1802 10.9673 22.5767C10.5825 23.2352 10.1884 24.0766 10.0403 24.5581C9.77945 25.3974 9.746 26.0868 9.91975 26.7445C10.0259 27.1485 10.197 27.4729 10.4295 27.7219C10.6662 27.9755 10.9672 28.1527 11.3353 28.2525C11.9383 28.4156 12.8235 28.3692 13.9413 28.106C14.1769 28.0511 14.5384 27.9502 14.8081 27.8702C14.5676 28.7112 14.5945 29.4792 14.8643 30.0302C14.9515 30.2074 15.1954 30.5061 15.3412 30.6161C16.2131 31.2669 18.046 31.2425 20.5056 30.4712C20.7026 30.4098 21.2587 30.2175 21.5357 30.1168C21.7249 30.3697 21.9014 30.4692 22.3104 30.5184C22.5766 30.5473 22.795 30.5046 23.0019 30.3855C23.0964 30.3307 23.1521 30.2769 23.1838 30.2266C23.2353 30.1448 23.2449 30.0605 23.2092 29.9598C23.175 29.8654 23.1256 29.8092 23.037 29.7694C22.9862 29.7466 22.9116 29.7301 22.7906 29.7211C22.6962 29.7147 22.6629 29.711 22.6127 29.6753L22.6283 29.6622C23.0589 29.4801 23.9886 29.0156 24.5623 28.6959C26.6606 27.5254 28.9026 25.8757 30.3957 24.4028C31.7487 23.0695 33.0599 21.4057 33.3308 20.6929C33.4129 20.4793 33.4354 20.2572 33.4007 20.0843C33.3714 19.9493 33.3553 19.9126 33.2249 19.7573C33.0872 19.5931 33.0583 19.5776 32.9312 19.5273C32.5082 19.3609 31.8546 19.5443 30.5667 20.3309C28.9192 21.3368 26.4742 23.2045 24.7515 24.7755C23.0546 26.3215 21.9399 27.6725 21.5264 28.6637C21.4767 28.7833 21.4782 28.839 21.4522 28.8531C21.4257 28.8679 21.1965 28.9572 20.9445 29.0563C19.5556 29.5954 18.3454 29.9046 17.4413 29.9443C17.192 29.9557 16.7939 29.9287 16.5972 29.8863C16.4323 29.8512 16.2297 29.7712 16.153 29.6984C16.0574 29.6094 16.0199 29.4602 16.0134 29.2724C16.0051 29.0356 16.0528 28.7399 16.1529 28.3961C16.2212 28.1638 16.4614 27.5634 16.5812 27.33L16.8624 27.1785C18.3775 26.6054 20.0922 25.7757 21.6981 24.8389C23.8672 23.5733 26.3638 21.8185 28.5993 19.9837C29.9313 18.8903 30.6476 18.2008 31.3265 17.3618C31.8566 16.7069 32.286 15.9693 32.3838 15.5581C32.4545 15.266 32.4451 15.0044 32.3677 14.7837C32.2862 14.5512 32.1298 14.3608 31.9003 14.2262C31.3027 13.876 30.2198 14.0141 28.7562 14.674C27.3722 15.2981 25.6419 16.3738 23.6873 17.8483C22.5193 18.727 20.8841 20.0872 20.02 20.8967C17.8147 22.9652 16.304 24.7641 15.4662 26.3127L15.4094 26.4185C14.6682 26.6973 13.5237 27.0208 12.9504 27.1183C12.4725 27.1983 12.0113 27.2196 11.7403 27.1663C11.5726 27.1337 11.4449 27.0803 11.3513 26.984C11.254 26.884 11.1949 26.7423 11.1516 26.5533C11.0856 26.2575 11.1053 25.7709 11.1935 25.4109C11.4662 24.3005 12.3654 22.7062 13.7379 20.8771L14.0357 20.4814L14.3431 20.3625C16.3768 19.5816 18.9017 18.1768 21.141 16.5781C22.3822 15.6914 23.7166 14.5907 24.6234 13.7041C25.3439 12.9999 25.9199 12.3509 26.3649 11.7441C26.7568 11.2072 27.0034 10.7537 27.1143 10.3686C27.2381 9.93925 27.1994 9.58701 27.0217 9.28927C26.8859 9.06174 26.6797 8.9088 26.4184 8.83748C26.1795 8.77227 25.8909 8.77685 25.5675 8.8634C24.6289 9.11756 23.2299 9.95721 21.2305 11.4814C20.7333 11.8624 19.0935 13.2383 18.6038 13.6855C16.561 15.5587 14.7513 17.4728 13.2184 19.3787L12.9287 19.7396L12.7661 19.7878C12.2942 19.927 11.7524 20.0298 11.3687 20.0529C11.1442 20.0663 10.8471 20.0351 10.7177 19.9763C10.6494 19.946 10.6385 19.9378 10.5986 19.8836C10.5285 19.7869 10.5121 19.6943 10.5065 19.5092C10.4776 18.7008 11.0375 17.3333 11.9669 15.8835C12.3212 15.3315 12.7292 14.7654 13.1636 14.2224L13.3737 13.9595C14.04 13.7529 14.7011 13.3332 15.6967 12.4978C16.8402 11.5359 17.9582 10.3251 18.2687 9.90808C18.6314 9.42103 18.7702 8.93682 18.7098 8.74595C18.6688 8.62398 18.589 8.52258 18.4895 8.45399C18.3854 8.38214 18.2611 8.34714 18.142 8.35965C17.9664 8.37749 17.5641 8.59252 17.0293 8.98134C16.6508 9.25534 15.6003 10.122 15.1404 10.5394C14.3017 11.2988 13.7482 11.8552 13.0568 12.6312L12.8384 12.8755C12.6504 12.9147 12.4749 12.8992 12.3226 12.854C12.2007 12.8187 12.1064 12.8144 12.0294 12.831V12.831ZM20.3826 13.8636C20.9644 13.3586 21.2097 13.1552 22.0087 12.5111C22.9738 11.7346 24.0357 10.9979 24.814 10.5638C25.1955 10.3506 25.5526 10.1821 25.8308 10.1264C25.7666 10.2609 25.6679 10.43 25.5614 10.591C25.0432 11.3679 24.2543 12.2518 23.0712 13.3825C22.7141 13.7251 20.9317 15.2181 20.4871 15.5506C18.9882 16.6674 17.6058 17.5575 16.1845 18.3175C16.0035 18.4139 15.787 18.5256 15.5783 18.631C17.052 16.964 18.7169 15.3117 20.3826 13.8636V13.8636ZM27.8275 16.6739C29.3293 15.7665 30.6116 15.2356 31.2197 15.2069C31.2058 15.2581 31.1843 15.3212 31.1602 15.377C30.923 15.938 30.2563 16.7551 29.3052 17.6657C28.9137 18.0396 27.3844 19.3153 26.6719 19.863C23.2597 22.4782 20.4589 24.2398 17.7356 25.4745C18.2128 24.829 18.8833 24.0349 19.5174 23.3695C20.7088 22.1187 22.1698 20.7949 23.6301 19.6437C25.2541 18.3623 26.5522 17.445 27.8275 16.6739ZM28.7338 23.2415C29.8488 22.3692 30.8454 21.6703 31.5812 21.2405C31.5113 21.3346 31.4393 21.4291 31.3714 21.5151C30.1973 23.0032 28.7938 24.3376 27.0415 25.6268C26.0131 26.3829 24.9478 27.0732 23.9122 27.6521C24.5086 26.9661 25.2639 26.2152 26.2921 25.2831C26.5598 25.0393 28.3789 23.5178 28.7338 23.2415V23.2415Z" fill="#1B1A22"/>
<path d="M20.5245 26.5828C24.1166 26.5828 27.0285 23.6653 27.0285 20.0663C27.0285 16.4673 24.1166 13.5498 20.5245 13.5498C16.9325 13.5498 14.0205 16.4673 14.0205 20.0663C14.0205 23.6653 16.9325 26.5828 20.5245 26.5828Z" fill="#41695A"/>
<path fill-rule="evenodd" clip-rule="evenodd" d="M9.78532 20.5731C9.50035 20.2366 9.3801 19.8037 9.42834 19.1846L10.5065 19.5155C10.5121 19.7006 10.5286 19.7932 10.5987 19.8899C10.6385 19.9441 10.6494 19.9523 10.7177 19.9826C10.8471 20.0413 11.1443 20.0726 11.3687 20.0592C11.7524 20.036 12.7661 19.7941 12.7661 19.7941L15.5783 18.6372C15.5783 18.6372 16.0035 18.4202 16.1845 18.3237C17.6058 17.5638 18.9882 16.6737 20.4871 15.5569C20.9318 15.2244 22.7141 13.7313 23.0712 13.3887C24.2544 12.2581 25.0432 11.3742 25.5614 10.5972C25.6679 10.4363 25.7317 10.2694 25.8308 10.1326L26.4185 8.84375C26.675 8.91005 26.8859 9.068 27.0217 9.29555C27.1994 9.59329 27.2381 9.94552 27.1144 10.3749C27.0034 10.76 26.7568 11.2134 26.3649 11.7504C25.9199 12.3572 25.3439 13.0062 24.6235 13.7104C23.7166 14.597 22.3822 15.6977 21.141 16.5844C18.9017 18.183 16.3768 19.5879 14.3431 20.3688L14.0357 20.4876L12.9528 20.8147L11.9692 21.0359C11.4656 21.1127 10.9664 21.116 10.6404 21.0467C10.2429 20.9621 9.99612 20.8211 9.78532 20.5731V20.5731Z" fill="#1B1A22"/>
<path fill-rule="evenodd" clip-rule="evenodd" d="M10.4296 27.7281C10.1971 27.4791 10.026 27.1547 9.91992 26.7507L11.1518 26.5595C11.195 26.7484 11.2541 26.8902 11.3514 26.9902C11.4451 27.0865 11.5728 27.1398 11.7404 27.1724C12.0115 27.2258 12.4726 27.2045 12.9506 27.1245C13.5238 27.027 14.6684 26.7035 15.4096 26.4246L17.7357 25.4806C20.4591 24.246 23.2598 22.4844 26.6721 19.8691C27.3846 19.3215 28.9138 18.0458 29.3054 17.6719C30.2565 16.7613 30.9231 15.9442 31.1603 15.3832C31.1844 15.3274 31.206 15.2643 31.2199 15.2131L31.9005 14.2324C32.1299 14.367 32.2863 14.5574 32.3679 14.7899C32.4453 15.0105 32.4547 15.2722 32.3839 15.5643C32.2861 15.9754 31.8568 16.7131 31.3267 17.368C30.6477 18.207 29.9315 18.8965 28.5995 19.9899C26.364 21.8247 23.8674 23.5795 21.6982 24.8451C20.0923 25.7819 18.3777 26.6116 16.8625 27.1847L16.5813 27.3362L14.8082 27.8764C14.5386 27.9564 14.177 28.0573 13.9415 28.1122C12.8236 28.3754 11.9385 28.4218 11.3354 28.2586C10.9674 28.1588 10.6664 27.9817 10.4296 27.7281V27.7281Z" fill="#1B1A22"/>
<path fill-rule="evenodd" clip-rule="evenodd" d="M20.5062 30.4781C18.0466 31.2494 16.2136 31.2738 15.3418 30.6229L16.1535 29.7052C16.2302 29.7781 16.4329 29.858 16.5978 29.8932C16.7945 29.9356 17.1925 29.9625 17.4418 29.9512C18.3459 29.9115 19.5561 29.6023 20.945 29.0632C21.197 28.9641 21.4263 28.8747 21.4528 28.86L23.9127 27.659C24.9483 27.0801 26.0136 26.3898 27.042 25.6337C28.7944 24.3445 30.1979 23.0101 31.3719 21.522C31.4399 21.436 31.5119 21.3415 31.5817 21.2473L32.9318 19.5342C33.0589 19.5845 33.0877 19.5999 33.2255 19.7641C33.3558 19.9194 33.372 19.9562 33.4013 20.0912C33.4359 20.2641 33.4134 20.4861 33.3313 20.6998C33.0605 21.4126 31.7493 23.0764 30.3963 24.4097C28.9032 25.8826 26.6611 27.5323 24.5628 28.7028C23.9891 29.0225 23.0594 29.487 22.6289 29.6691L22.6132 29.6822L21.5362 30.1237C21.2592 30.2244 20.7032 30.4167 20.5062 30.4781V30.4781Z" fill="#1B1A22"/>
</svg>
