<svg width="45" height="40" viewBox="0 0 45 40" fill="none" xmlns="http://www.w3.org/2000/svg">
<path d="M44.7296 20.0046C44.7296 17.0291 41.0189 14.2092 35.3297 12.4605C36.6426 6.63767 36.059 2.00504 33.488 0.521858C32.8953 0.173953 32.2024 0.00915527 31.4457 0.00915527V2.05081C31.8651 2.05081 32.2024 2.13321 32.4851 2.28885C33.725 3.00298 34.2629 5.72213 33.8435 9.2195C33.7432 10.0801 33.5791 10.9865 33.3785 11.9112C31.5916 11.4717 29.6404 11.133 27.589 10.9133C26.3582 9.2195 25.0818 7.68139 23.7962 6.33555C26.7685 3.56146 29.5584 2.04166 31.4548 2.04166V0C28.9475 0 25.6653 1.79446 22.3466 4.9073C19.0279 1.81277 15.7456 0.0366218 13.2384 0.0366218V2.07828C15.1257 2.07828 17.9247 3.58892 20.8969 6.3447C19.6205 7.69055 18.3441 9.2195 17.1315 10.9133C15.0709 11.133 13.1198 11.4717 11.3328 11.9203C11.1231 11.0048 10.9681 10.1167 10.8587 9.26528C10.4302 5.76791 10.959 3.04875 12.1899 2.32547C12.4634 2.16068 12.819 2.08743 13.2384 2.08743V0.0457771C12.4725 0.0457771 11.7796 0.210574 11.1778 0.55848C8.61588 2.04166 8.04149 6.66514 9.3635 12.4697C3.69252 14.2275 0 17.0382 0 20.0046C0 22.9801 3.71075 25.8 9.39997 27.5486C8.08707 33.3715 8.67058 38.0041 11.2417 39.4873C11.8343 39.8352 12.5272 40 13.2931 40C15.8003 40 19.0826 38.2055 22.4013 35.0927C25.72 38.1872 29.0022 39.9634 31.5095 39.9634C32.2754 39.9634 32.9683 39.7986 33.57 39.4507C36.132 37.9675 36.7064 33.344 35.3844 27.5395C41.0371 25.7908 44.7296 22.9709 44.7296 20.0046V20.0046ZM32.8589 13.8979C32.5215 15.079 32.1021 16.2966 31.628 17.5143C31.2542 16.7819 30.8622 16.0494 30.4337 15.317C30.0143 14.5846 29.5675 13.8704 29.1208 13.1746C30.4154 13.3669 31.6645 13.6049 32.8589 13.8979ZM28.6831 23.6484C27.972 24.8844 27.2426 26.0563 26.4858 27.1458C25.1274 27.2648 23.7506 27.3289 22.3648 27.3289C20.9881 27.3289 19.6114 27.2648 18.262 27.155C17.5053 26.0655 16.7668 24.9027 16.0556 23.6759C15.3627 22.4765 14.7336 21.2589 14.1592 20.032C14.7245 18.8052 15.3627 17.5784 16.0465 16.379C16.7577 15.1431 17.487 13.9712 18.2438 12.8817C19.6023 12.7626 20.979 12.6986 22.3648 12.6986C23.7415 12.6986 25.1182 12.7626 26.4676 12.8725C27.2244 13.962 27.9629 15.1247 28.674 16.3516C29.3669 17.5509 29.996 18.7686 30.5704 19.9954C29.996 21.2222 29.3669 22.4491 28.6831 23.6484ZM31.628 22.4582C32.1204 23.6851 32.5398 24.9119 32.8862 26.1021C31.6918 26.3951 30.4337 26.6423 29.1299 26.8345C29.5766 26.1295 30.0234 25.4063 30.4428 24.6647C30.8622 23.9322 31.2542 23.1907 31.628 22.4582ZM22.383 32.2271C21.5351 31.3481 20.6872 30.3685 19.8484 29.2973C20.669 29.3339 21.5078 29.3614 22.3557 29.3614C23.2127 29.3614 24.0606 29.3431 24.8903 29.2973C24.0698 30.3685 23.2218 31.3481 22.383 32.2271ZM15.5998 26.8345C14.3051 26.6423 13.056 26.4042 11.8616 26.1112C12.199 24.9302 12.6184 23.7125 13.0925 22.4949C13.4663 23.2273 13.8583 23.9597 14.2869 24.6921C14.7154 25.4246 15.153 26.1387 15.5998 26.8345ZM22.3375 7.7821C23.1854 8.66102 24.0333 9.64065 24.8721 10.7118C24.0515 10.6752 23.2127 10.6477 22.3648 10.6477C21.5078 10.6477 20.6599 10.6661 19.8302 10.7118C20.6508 9.64065 21.4987 8.66102 22.3375 7.7821ZM15.5906 13.1746C15.1439 13.8796 14.6971 14.6029 14.2777 15.3445C13.8583 16.0769 13.4663 16.8093 13.0925 17.5418C12.6002 16.3149 12.1808 15.0881 11.8343 13.8979C13.0287 13.6141 14.2869 13.3669 15.5906 13.1746V13.1746ZM7.33945 24.6372C4.11192 23.2547 2.02405 21.442 2.02405 20.0046C2.02405 18.5672 4.11192 16.7452 7.33945 15.3719C8.12354 15.0332 8.98057 14.7311 9.86495 14.4472C10.3846 16.2417 11.0684 18.1094 11.9164 20.0229C11.0776 21.9272 10.4029 23.7858 9.89231 25.5711C8.98969 25.2872 8.13266 24.976 7.33945 24.6372ZM12.2446 37.7203C11.0046 37.0062 10.4667 34.287 10.8861 30.7897C10.9864 29.929 11.1505 29.0227 11.3511 28.098C13.1381 28.5374 15.0892 28.8762 17.1406 29.0959C18.3714 30.7897 19.6478 32.3278 20.9334 33.6736C17.9611 36.4477 15.1712 37.9675 13.2748 37.9675C12.8646 37.9583 12.5181 37.8759 12.2446 37.7203V37.7203ZM33.8709 30.7439C34.2994 34.2412 33.7706 36.9604 32.5398 37.6837C32.2662 37.8485 31.9107 37.9217 31.4913 37.9217C29.604 37.9217 26.805 36.4111 23.8327 33.6553C25.1091 32.3095 26.3856 30.7805 27.5982 29.0867C29.6587 28.867 31.6098 28.5283 33.3968 28.0797C33.6065 29.0043 33.7706 29.8924 33.8709 30.7439V30.7439ZM37.3811 24.6372C36.597 24.976 35.7399 25.2781 34.8556 25.5619C34.3359 23.7675 33.6521 21.8997 32.8042 19.9863C33.643 18.0819 34.3176 16.2234 34.8282 14.4381C35.7308 14.7219 36.5878 15.0332 37.3902 15.3719C40.6177 16.7544 42.7056 18.5672 42.7056 20.0046C42.6965 21.442 40.6086 23.2639 37.3811 24.6372V24.6372Z" fill="#FAF7F4"/>
<path d="M22.3558 24.1884C24.657 24.1884 26.5224 22.3151 26.5224 20.0043C26.5224 17.6936 24.657 15.8203 22.3558 15.8203C20.0547 15.8203 18.1892 17.6936 18.1892 20.0043C18.1892 22.3151 20.0547 24.1884 22.3558 24.1884Z" fill="#FAF7F4"/>
</svg>
