<svg width="43" height="40" viewBox="0 0 43 40" fill="none" xmlns="http://www.w3.org/2000/svg">
<path d="M29.2266 27.9357C30.7832 27.7747 31.964 26.4343 31.9103 24.8257C31.8568 23.2172 30.5147 21.9303 28.9045 21.9303H28.7972C27.1331 21.9839 25.8449 23.378 25.8986 25.0401C25.9523 25.8444 26.2743 26.5415 26.7574 27.024C24.9324 30.6166 22.1413 33.2439 17.9545 35.4423C15.1097 36.9436 12.1575 37.4799 9.20539 37.1046C6.7899 36.7828 4.91122 35.7106 3.73017 33.9409C2.01263 31.3136 1.85165 28.4717 3.30095 25.63C4.32086 23.5924 5.93096 22.0911 6.95087 21.3404C6.73618 20.6434 6.41406 19.4638 6.25308 18.606C-1.53003 24.2359 -0.724814 31.8499 1.63696 35.4423C3.40821 38.1234 7.00459 39.7855 10.9766 39.7855C12.0501 39.7855 13.1236 39.6782 14.1972 39.4103C21.0678 38.0697 26.2745 33.9946 29.2266 27.9357V27.9357ZM38.6737 21.2869C34.5942 16.5147 28.5825 13.8874 21.7119 13.8874H20.8531C20.37 12.9223 19.3501 12.2788 18.2229 12.2788H18.1155C16.4517 12.3324 15.1635 13.7265 15.2171 15.3888C15.2708 16.9973 16.6127 18.2842 18.2229 18.2842H18.3302C19.5111 18.2305 20.531 17.4799 20.9604 16.4611H21.9266C26.0061 16.4611 29.8707 17.6407 33.3598 19.9463C36.0435 21.7158 37.9759 24.0215 39.0494 26.8096C39.9619 29.0616 39.9081 31.26 38.9419 33.1368C37.4391 35.9785 34.9163 37.5335 31.5884 37.5335C29.4413 37.5335 27.4016 36.89 26.328 36.4074C25.7376 36.9436 24.664 37.8015 23.9125 38.3378C26.2207 39.4101 28.5825 40 30.8369 40C35.9898 40 39.8009 37.1581 41.2502 34.3164C42.8067 31.2063 42.6993 25.8444 38.6737 21.2869V21.2869ZM11.406 28.847C11.4597 30.4557 12.8016 31.7424 14.4119 31.7424H14.5193C16.1833 31.6889 17.4714 30.2947 17.4177 28.6325C17.3642 27.0239 16.0221 25.7371 14.4119 25.7371H14.3046C14.1972 25.7371 14.036 25.7371 13.9289 25.7906C11.7281 22.1446 10.8157 18.1769 11.1378 13.8873C11.3523 10.6701 12.4259 7.88186 14.3046 5.57617C15.8612 3.59225 18.867 2.62712 20.9068 2.57363C26.5964 2.46632 29.0117 9.54401 29.1729 12.3859C29.8707 12.5467 31.0516 12.9221 31.8568 13.1903C31.2125 4.50406 25.8449 0 20.6921 0C15.8612 0 11.406 3.48527 9.63461 8.6327C7.16557 15.4959 8.77584 22.0911 11.7817 27.2921C11.5134 27.6674 11.3523 28.2573 11.406 28.8472V28.847Z" fill="#FAF7F4"/>
</svg>
