<svg width="31" height="40" viewBox="0 0 31 40" fill="none" xmlns="http://www.w3.org/2000/svg">
<path d="M3.37754 5.13672C3.37754 10.4964 6.67771 13.7122 13.2781 15.4047L20.2699 17.0408C26.5347 18.5077 30.3383 22.1184 30.3383 27.9858C30.3942 30.5246 29.5552 33.007 28.0449 35.038C28.0449 29.1706 25.0244 26.0112 17.8088 24.093L10.9288 22.5133C5.39121 21.2721 1.14014 18.282 1.14014 11.9068C1.14014 9.48087 1.92323 7.05491 3.37754 5.13672" fill="#182725"/>
<path d="M23.7376 26.5162C26.7022 28.4344 28.0447 31.1425 28.0447 35.0353C25.5276 38.2511 21.2206 40 16.1305 40C7.5724 40 1.47547 35.7123 0.188965 28.3216H8.41143C9.47419 31.7066 12.2709 33.2863 16.0745 33.2863C20.6053 33.3427 23.6817 30.8604 23.7376 26.5162M7.68427 13.0889C4.88751 11.3963 3.2654 8.34979 3.37727 5.07757C5.78248 1.91819 9.92167 0 14.9558 0C23.7376 0 28.7718 4.68265 30.0583 11.2271H22.1155C21.2206 8.63188 19.0391 6.60085 15.0677 6.60085C10.7607 6.65726 7.85208 9.13963 7.68427 13.0889" fill="#FAF7F4"/>
</svg>
