<svg width="54" height="40" viewBox="0 0 54 40" fill="none" xmlns="http://www.w3.org/2000/svg">
<path d="M46.5644 22.9944C44.7048 23.0042 43.0885 23.4523 41.7352 24.1148C41.2386 23.1308 40.7421 22.254 40.6545 21.611C40.5571 20.8609 40.4403 20.403 40.5571 19.5067C40.6739 18.6104 41.1997 17.3342 41.19 17.2367C41.1802 17.1393 41.0731 16.6814 40.0021 16.6717C38.9311 16.6619 38.0062 16.8763 37.8991 17.1588C37.792 17.4413 37.5875 18.0843 37.4512 18.7468C37.2662 19.721 35.3092 23.199 34.1895 25.0208C33.8292 24.3096 33.5177 23.6861 33.4495 23.1893C33.3522 22.4391 33.2353 21.9812 33.3522 21.0849C33.469 20.1886 33.9948 18.9124 33.985 18.815C33.9753 18.7176 33.8682 18.2597 32.7972 18.2499C31.7262 18.2402 30.8012 18.4545 30.6941 18.737C30.587 19.0196 30.4702 19.6821 30.2463 20.325C30.0223 20.968 27.4227 26.7745 26.7412 28.2748C26.3906 29.0444 26.0888 29.6582 25.8746 30.0771C25.8746 30.0771 25.8649 30.1063 25.8357 30.155C25.6507 30.5155 25.5436 30.7104 25.5436 30.7104C25.5436 30.7104 25.5436 30.7103 25.5436 30.7201C25.3975 30.9831 25.2417 31.2267 25.1639 31.2267C25.1054 31.2267 24.9983 30.5252 25.1833 29.5705C25.5728 27.5538 26.4977 24.4168 26.488 24.3097C26.488 24.2512 26.6633 23.7056 25.8844 23.4231C25.1249 23.1406 24.8523 23.6082 24.7841 23.6082C24.716 23.6082 24.6673 23.7738 24.6673 23.7738C24.6673 23.7738 25.5144 20.2471 23.0511 20.2471C21.5127 20.2471 19.3902 21.9325 18.3386 23.4523C17.6766 23.8128 16.2648 24.5824 14.7557 25.4105C14.1812 25.732 13.5873 26.0535 13.0323 26.3555C12.9934 26.3166 12.9544 26.2679 12.9155 26.2289C9.93615 23.0431 4.42535 20.7927 4.65902 16.5158C4.74665 14.957 5.28215 10.8653 15.2425 5.89667C23.4405 1.85361 29.9639 2.97398 31.0933 5.45827C32.7096 9.00447 27.598 15.5903 19.1273 16.545C15.8948 16.9055 14.2007 15.6585 13.7723 15.1908C13.3244 14.7037 13.2563 14.6745 13.0907 14.7719C12.8181 14.9181 12.9934 15.3565 13.0907 15.6098C13.3439 16.2722 14.3857 17.4413 16.148 18.0161C17.7058 18.5227 21.4932 18.8052 26.0791 17.0321C31.2102 15.0447 35.2215 9.52081 34.0434 4.89321C32.8653 0.197416 25.0762 -1.35161 17.7058 1.26907C13.3244 2.82784 8.57305 5.28291 5.15558 8.47838C1.0955 12.2779 0.452903 15.5805 0.715786 16.9639C1.66022 21.8741 8.42701 25.0696 11.1337 27.4369C10.9974 27.5149 10.8708 27.5831 10.7637 27.6415C9.41038 28.3137 4.25009 31.0124 2.96489 33.8669C1.50443 37.1013 3.19856 39.42 4.31825 39.7317C7.79414 40.6962 11.3674 38.9621 13.2855 36.0979C15.2035 33.2336 14.9699 29.512 14.0838 27.8071C14.0741 27.7877 14.0644 27.7682 14.0449 27.7487C14.3954 27.5441 14.7557 27.3298 15.1062 27.1252C15.7975 26.716 16.479 26.3361 17.0632 26.0243C16.7321 26.9303 16.4887 28.0117 16.3719 29.5705C16.2259 31.4021 16.9756 33.7792 17.9589 34.7144C18.3971 35.1236 18.9131 35.1334 19.2441 35.1334C20.393 35.1334 20.9091 34.1786 21.4835 33.0485C22.1845 31.6651 22.8174 30.0576 22.8174 30.0576C22.8174 30.0576 22.0287 34.4027 24.1707 34.4027C24.9497 34.4027 25.7383 33.3895 26.0888 32.8731C26.0888 32.8829 26.0888 32.8829 26.0888 32.8829C26.0888 32.8829 26.1083 32.8537 26.1472 32.7855C26.2251 32.6588 26.2738 32.5809 26.2738 32.5809C26.2738 32.5809 26.2738 32.5711 26.2738 32.5614C26.5854 32.0158 27.2864 30.7785 28.3282 28.7229C29.6718 26.073 30.9667 22.7606 30.9667 22.7606C30.9667 22.7606 31.0836 23.5692 31.4828 24.9137C31.7164 25.7028 32.2033 26.5699 32.5927 27.4077C32.2812 27.8461 32.0864 28.0897 32.0864 28.0897C32.0864 28.0897 32.0864 28.0897 32.0962 28.0994C31.843 28.4306 31.5704 28.7911 31.2686 29.1418C30.2073 30.4083 28.9416 31.8599 28.7663 32.2789C28.5619 32.7757 28.6105 33.1362 29 33.4285C29.2824 33.6428 29.7886 33.672 30.3047 33.6428C31.2588 33.5746 31.9306 33.3408 32.2617 33.1946C32.7777 33.0095 33.3814 32.727 33.9461 32.3081C34.9879 31.5384 35.6207 30.4376 35.5623 28.986C35.5331 28.1871 35.2702 27.3882 34.9489 26.6381C35.0463 26.5017 35.1339 26.3653 35.2313 26.2289C36.8767 23.8225 38.1522 21.1824 38.1522 21.1824C38.1522 21.1824 38.269 21.991 38.6682 23.3354C38.863 24.0174 39.2621 24.7578 39.6127 25.4787C38.0646 26.7355 37.1104 28.1968 36.7696 29.1516C36.1562 30.9247 36.6333 31.7236 37.5388 31.9087C37.9477 31.9963 38.5319 31.8015 38.9603 31.6164C39.5056 31.441 40.1482 31.139 40.7616 30.6909C41.8033 29.9212 42.8062 28.8496 42.7478 27.398C42.7186 26.7355 42.5433 26.0828 42.2999 25.4495C43.6143 24.9039 45.3084 24.6019 47.4699 24.8552C52.1044 25.4008 53.0197 28.2943 52.8444 29.512C52.6692 30.7298 51.6955 31.3923 51.3742 31.5969C51.0529 31.8015 50.9458 31.8697 50.975 32.0158C51.014 32.2302 51.1698 32.2204 51.4424 32.1814C51.8221 32.1132 53.8765 31.1975 53.9641 28.9567C54.1101 26.0925 51.384 22.9652 46.5644 22.9944ZM10.8124 35.0554C9.27407 36.7311 7.13207 37.3644 6.20711 36.8285C5.214 36.2537 5.60345 33.7792 7.49231 32.0061C8.64121 30.9247 10.1211 29.9212 11.1045 29.3075C11.3284 29.1711 11.6595 28.9762 12.0587 28.7327C12.1268 28.6937 12.1658 28.6742 12.1658 28.6742C12.2437 28.6255 12.3216 28.5768 12.3995 28.5281C13.0907 31.0611 12.4287 33.2921 10.8124 35.0554ZM22.0093 27.4369C21.4738 28.7424 20.3541 32.084 19.6725 31.8989C19.0884 31.743 18.7281 29.21 19.5557 26.7063C19.9744 25.4495 20.8604 23.9492 21.3764 23.3646C22.2137 22.4294 23.1387 22.1176 23.3626 22.4976C23.645 22.9944 22.3403 26.6186 22.0093 27.4369ZM31.2491 31.8599C31.0252 31.9769 30.811 32.0548 30.7136 31.9963C30.6454 31.9574 30.811 31.8015 30.811 31.8015C30.811 31.8015 31.9696 30.5545 32.4272 29.9894C32.6901 29.6582 33.0017 29.2685 33.3327 28.8301C33.3327 28.8691 33.3327 28.9178 33.3327 28.9567C33.3327 30.4473 31.8917 31.4508 31.2491 31.8599ZM38.3761 30.233C38.2106 30.1161 38.2398 29.7264 38.7948 28.5086C39.009 28.0312 39.5153 27.2323 40.3818 26.4627C40.4792 26.7745 40.5474 27.0765 40.5376 27.359C40.5279 29.2393 39.1843 29.9407 38.3761 30.233Z" fill="#FAF7F4"/>
</svg>
