<svg width="40" height="40" viewBox="0 0 40 40" fill="none" xmlns="http://www.w3.org/2000/svg">
<path d="M32.8522 0.000976562L32.5659 1.49391C32.1229 4.32324 32.2833 5.1327 33.4975 6.18272L34.6697 7.15256L33.4555 12.5668C32.73 15.7971 31.8404 18.5042 31.2753 19.3939C30.7904 20.1613 30.2253 21.2915 30.1031 21.8986C29.9007 22.6241 29.2134 23.3534 28.1634 23.9987C27.2356 24.5256 25.4143 25.9384 24.1237 27.0724C23.0928 28.0002 22.3826 28.5691 21.9969 28.8135L20.7369 29.8101C20.3322 30.4592 20.1031 30.9823 20.0153 31.3794C19.9275 31.7879 19.9771 32.059 20.1069 32.2576C20.2329 32.4485 20.4505 32.5821 20.7484 32.6661C21.1009 32.7487 21.4638 32.7783 21.8251 32.7539C22.6425 32.6981 23.4515 32.5547 24.2383 32.3263C24.5055 32.2537 24.7155 32.185 24.8988 32.1239C25.1814 31.7765 25.8343 31.1197 26.9912 29.9781C30.0611 26.9502 31.2333 25.2931 30.0229 25.7398C29.5762 25.9002 29.7785 25.4954 30.546 24.686C32.1649 23.109 33.0928 20.7264 35.0325 13.2541C36.5674 7.35493 36.5674 7.27093 37.6976 7.27093C38.2283 7.27093 39.7289 7.36256 39.7289 7.36256V0.000976562H36.2848H32.8522ZM19.2516 12.6203C18.1367 12.6127 15.7388 14.3118 8.56052 20.1728C8.25124 20.9097 8.22451 21.4175 8.36579 21.7459C8.45742 21.9712 8.62543 22.1277 8.85834 22.2423C9.08744 22.3568 9.38526 22.4256 9.71363 22.4523C10.3665 22.5096 11.1378 22.4065 11.7602 22.2843L12.1802 22.1888C12.324 21.996 12.5128 21.8414 12.73 21.7383C13.173 21.4939 15.0325 19.7986 16.8919 17.9811C20.1642 14.6669 20.9316 13.1701 19.5991 12.6852C19.4898 12.6417 19.3731 12.6197 19.2554 12.6203H19.2516ZM27.6365 14.9227C26.6552 14.9494 24.8874 16.0873 21.8595 18.5042C20.3398 19.7375 19.3776 20.4019 18.8622 20.5393L16.8614 22.1201C16.1092 23.4947 15.9985 24.3461 16.197 24.8158C16.2467 24.9316 16.3189 25.0365 16.4093 25.1243C16.4997 25.2121 16.6067 25.2812 16.7239 25.3274C17.0156 25.4426 17.3267 25.5009 17.6403 25.4993C18.3898 25.4913 19.1347 25.3821 19.8549 25.1747C20.2303 25.074 20.601 24.9568 20.966 24.8234L21.0767 24.7776L21.2791 24.6707C21.6609 24.1781 22.5391 23.2503 23.6388 22.1812C27.1134 18.8288 28.8889 16.4462 28.5261 15.5565C28.362 15.1251 28.0794 14.9074 27.6365 14.9227ZM18.3811 19.0464C18.0985 19.077 17.4647 19.5657 16.323 20.5661C14.6735 22.0246 12.8751 22.8647 12.2528 22.4905C12.1081 22.5231 11.963 22.5537 11.8175 22.5821C11.1837 22.7081 10.3933 22.8112 9.6869 22.7539C9.35408 22.7338 9.02786 22.6522 8.7247 22.5134C8.43876 22.3827 8.21058 22.1518 8.08324 21.8643C7.94196 21.5206 7.94196 21.093 8.10233 20.547L5.62046 22.5859L0.0038166 27.2327V34.7661L18.4078 20.2683C18.4042 20.1095 18.4248 19.9511 18.4689 19.7986C18.6102 19.287 18.6025 19.0273 18.3811 19.0502V19.0464ZM26.3001 21.4863C26.0214 21.4863 25.5556 21.8796 24.811 22.6699C23.7992 23.7505 22.2069 24.7967 21.3631 25.0105L21.2333 25.0792C21.0947 25.1365 20.9547 25.1899 20.8133 25.2396C20.5842 25.316 20.2864 25.4076 19.9427 25.4993C19.2554 25.6863 18.4001 25.8582 17.6365 25.8391C17.2765 25.8386 16.9199 25.7686 16.5865 25.6329C16.2722 25.5034 16.0203 25.257 15.8839 24.9456C15.6625 24.4149 15.7503 23.6703 16.2352 22.6127L0 35.4V40.001H7.13249L22.2604 28.1186C22.6537 27.6833 23.2455 27.0876 24.0435 26.3431C26.1817 24.3614 26.6667 23.6779 26.6667 22.6661C26.6667 21.8796 26.5788 21.4825 26.3001 21.4825V21.4863ZM29.9007 28.9319L28.6063 30.2224C27.8809 30.9097 26.5865 31.7574 25.7006 32.1201L25.525 32.1965L25.5136 32.2156L25.4754 32.2537C25.441 32.2805 25.4257 32.2843 25.399 32.2957C25.0454 32.4296 24.6861 32.5481 24.3223 32.6508C23.5132 32.8863 22.6811 33.0336 21.8404 33.0899C21.4429 33.1154 21.0438 33.0807 20.6567 32.9868C20.3208 32.9129 20.0242 32.717 19.8244 32.437C19.6411 32.1545 19.5876 31.7765 19.6907 31.3106C19.7727 30.979 19.8945 30.6585 20.0535 30.3561L7.84651 40.001H24.0817L26.0214 37.7788C28.6865 34.6707 29.9007 32.4485 29.9007 30.547V28.9319Z" fill="#FAF7F4"/>
</svg>
