<svg width="40" height="40" viewBox="0 0 40 40" fill="none" xmlns="http://www.w3.org/2000/svg">
<path d="M35.2524 5.29152C31.3645 -0.0292853 23.6244 -1.58825 18.0601 1.76691L8.25116 7.73164C5.576 9.32449 3.72122 11.9341 3.18619 14.8825C2.72249 17.3565 3.11485 19.8983 4.36326 22.1012C3.50721 23.3213 2.93651 24.6769 2.68683 26.1003C2.11613 29.1165 2.86517 32.2345 4.71995 34.7085C8.64351 40.0293 16.348 41.5883 21.9123 38.2331L31.7212 32.3023C34.3964 30.7094 36.2511 28.0998 36.7862 25.1514C37.2499 22.6773 36.8575 20.1356 35.6091 17.9327C36.4652 16.7126 37.0359 15.357 37.2855 13.9336C37.8919 10.8835 37.1429 7.76553 35.2524 5.29152Z" fill="#182725"/>
<path d="M17.0966 35.2154C13.9221 35.9949 10.6049 34.8087 8.75014 32.2669C7.60874 30.7758 7.18071 28.9118 7.50173 27.0817C7.57307 26.7767 7.64441 26.5056 7.71574 26.2005L7.89409 25.6583L8.39345 25.9972C9.57052 26.8106 10.8546 27.4206 12.2457 27.8273L12.6024 27.929L12.5667 28.2679C12.531 28.7423 12.6737 29.2507 12.9591 29.6574C13.5298 30.4368 14.5285 30.8096 15.4915 30.5724C15.7056 30.5046 15.9196 30.4368 16.0979 30.3352L25.8712 24.4043C26.3705 24.0993 26.6915 23.6587 26.7985 23.1165C26.9055 22.5743 26.7629 21.9981 26.4419 21.5575C25.8712 20.7781 24.8724 20.4392 23.9094 20.6764C23.6954 20.7442 23.4813 20.8119 23.303 20.9136L19.5578 23.1843C18.9514 23.5571 18.2737 23.8282 17.5603 23.9977C14.3858 24.7771 11.0686 23.591 9.21383 21.0492C8.1081 19.558 7.64441 17.694 8.00109 15.8639C8.32211 14.1016 9.46351 12.5088 11.0686 11.5598L20.8775 5.629C21.4839 5.25621 22.1616 4.98508 22.875 4.78174C26.0495 4.00226 29.3667 5.18843 31.2215 7.73021C32.3629 9.22139 32.7909 11.0854 32.4699 12.9155C32.3985 13.2205 32.3272 13.4916 32.2202 13.7966L32.0419 14.3389L31.5425 14C30.3654 13.1866 29.0813 12.5766 27.6903 12.1699L27.3336 12.0682L27.3692 11.7293C27.4049 11.2548 27.2622 10.7465 26.9769 10.3398C26.4062 9.5603 25.4075 9.2214 24.4444 9.45863C24.2304 9.52641 24.0164 9.59419 23.838 9.69586L14.0648 15.6267C13.5654 15.9317 13.2444 16.3723 13.1374 16.9145C13.0304 17.4568 13.1731 18.0329 13.4941 18.4735C14.0648 19.253 15.0635 19.5919 16.0266 19.3547C16.2406 19.2869 16.4546 19.2191 16.6329 19.1174L20.3782 16.8468C20.9845 16.474 21.6622 16.2028 22.3756 15.9995C25.5501 15.22 28.8673 16.4062 30.7221 18.948C31.8635 20.4392 32.2915 22.3031 31.9705 24.1332C31.6495 25.8955 30.5081 27.4884 28.903 28.4373L19.0941 34.3681C18.4877 34.7409 17.81 35.0121 17.0966 35.2154Z" fill="#FAF7F4"/>
</svg>
