<svg width="42" height="42" viewBox="0 0 42 42" fill="none" xmlns="http://www.w3.org/2000/svg">
<path d="M25.8913 26.6178L26.2381 26.978L26.2381 26.978L25.8913 26.6178ZM10.9573 41L10.4725 41.1227L10.6839 41.9577L11.3042 41.3601L10.9573 41ZM20.8354 6.61775L20.9706 6.13639L20.9705 6.13637L20.8354 6.61775ZM3.36334 11.0033L2.87862 11.126L2.87864 11.126L3.36334 11.0033ZM13.3617 13.8056L12.877 13.9283L13.0882 14.7623L13.7083 14.1659L13.3617 13.8056ZM0.832031 1L0.967263 0.518635L0.135321 0.284914L0.347309 1.12266L0.832031 1ZM40.832 12.2355L41.1788 12.5957L41.8078 11.9903L40.9673 11.7541L40.832 12.2355ZM15.4083 23.9316L17.9396 33.9283L18.909 33.6828L16.3777 23.6861L15.4083 23.9316ZM26.0265 26.1364L16.0282 23.3275L15.7577 24.2902L25.7561 27.0991L26.0265 26.1364ZM18.771 34.1658L26.2381 26.978L25.5446 26.2575L18.0775 33.4453L18.771 34.1658ZM18.5595 33.3242L8.56119 30.5153L8.29072 31.4781L18.2891 34.2869L18.5595 33.3242ZM7.94123 31.1193L10.4725 41.1227L11.442 40.8773L8.91068 30.874L7.94123 31.1193ZM11.3042 41.3601L18.7712 34.1656L18.0774 33.4455L10.6103 40.6399L11.3042 41.3601ZM8.77271 31.3569L16.2397 24.1691L15.5462 23.4487L8.0792 30.6365L8.77271 31.3569ZM16.2397 24.1691L23.7134 16.9747L23.0199 16.2542L15.5462 23.4487L16.2397 24.1691ZM23.7134 16.9747L31.1805 9.78686L30.4869 9.06641L23.0199 16.2542L23.7134 16.9747ZM20.3507 6.74049L22.882 16.7372L23.8514 16.4917L21.3201 6.49502L20.3507 6.74049ZM23.5015 16.133L13.4965 13.3307L13.2268 14.2937L23.2318 17.0959L23.5015 16.133ZM12.877 13.9349L15.4083 23.9316L16.3777 23.6861L13.8464 13.6895L12.877 13.9349ZM16.0282 23.3275L6.02988 20.5186L5.75941 21.4814L15.7577 24.2902L16.0282 23.3275ZM5.40994 21.1227L7.94125 31.1194L8.91066 30.874L6.37935 20.8773L5.40994 21.1227ZM2.87864 11.126L5.40994 21.1227L6.37935 20.8773L3.84804 10.8806L2.87864 11.126ZM13.4969 13.3308L3.49857 10.5219L3.22811 11.4847L13.2264 14.2936L13.4969 13.3308ZM6.2414 21.3602L13.7084 14.1724L13.0149 13.452L5.54789 20.6398L6.2414 21.3602ZM13.7083 14.1659L21.182 6.97813L20.4888 6.25738L13.0151 13.4452L13.7083 14.1659ZM20.9705 6.13637L10.9655 3.32749L10.6952 4.29027L20.7002 7.09914L20.9705 6.13637ZM10.3457 3.93161L12.877 13.9283L13.8464 13.6828L11.3151 3.68614L10.3457 3.93161ZM3.84806 10.8807L1.31675 0.877343L0.347309 1.12266L2.87862 11.126L3.84806 10.8807ZM0.696799 1.48137L10.6951 4.29024L10.9656 3.32751L0.967263 0.518635L0.696799 1.48137ZM3.71026 11.3634L11.1773 4.16894L10.4834 3.44881L3.01642 10.6432L3.71026 11.3634ZM33.7118 19.7835L41.1788 12.5957L40.4853 11.8753L33.0183 19.0631L33.7118 19.7835ZM40.9673 11.7541L30.9689 8.94527L30.6985 9.908L40.6968 12.7169L40.9673 11.7541ZM30.349 9.54937L32.8803 19.5461L33.8497 19.3006L31.3184 9.3039L30.349 9.54937ZM33.5002 18.942L23.5019 16.1331L23.2314 17.0958L33.2298 19.9047L33.5002 18.942ZM22.8819 16.7368L25.4065 26.7401L26.3761 26.4954L23.8515 16.4921L22.8819 16.7368ZM26.2381 26.978L33.7118 19.7835L33.0182 19.0631L25.5445 26.2575L26.2381 26.978ZM30.9689 8.94527L20.9706 6.13639L20.7001 7.09912L30.6985 9.908L30.9689 8.94527Z" fill="#FAF7F4"/>
</svg>
