<svg width="40" height="40" viewBox="0 0 40 40" fill="none" xmlns="http://www.w3.org/2000/svg">
<path d="M0 20V0H40V40H0" fill="#182725"/>
<path d="M8.77002 20.0705V21.7005H13.97V36.5005H17.66V21.7005H22.86V20.1005C22.86 19.2005 22.86 18.4705 22.82 18.4505C22.82 18.4205 19.65 18.4105 15.8 18.4105L8.80002 18.4405V20.0805L8.77002 20.0705V20.0705ZM32.14 18.4005C33.16 18.6405 33.94 19.1005 34.64 19.8305C35.01 20.2305 35.56 20.9305 35.6 21.1105C35.6 21.1705 33.87 22.3405 32.82 22.9905C32.78 23.0205 32.62 22.8505 32.46 22.5905C31.94 21.8505 31.41 21.5305 30.58 21.4705C29.38 21.3905 28.58 22.0205 28.58 23.0705C28.58 23.3905 28.64 23.5705 28.76 23.8305C29.03 24.3805 29.53 24.7105 31.08 25.3905C33.94 26.6205 35.18 27.4305 35.93 28.5905C36.78 29.8905 36.97 31.9305 36.4 33.4605C35.76 35.1305 34.2 36.2605 31.97 36.6305C31.27 36.7505 29.67 36.7305 28.92 36.6005C27.32 36.3005 25.79 35.5005 24.85 34.4705C24.48 34.0705 23.77 33.0005 23.81 32.9305L24.19 32.6905L25.69 31.8205L26.82 31.1605L27.08 31.5105C27.41 32.0305 28.15 32.7305 28.58 32.9705C29.88 33.6405 31.62 33.5505 32.48 32.7705C32.85 32.4305 33.01 32.0705 33.01 31.5705C33.01 31.1105 32.94 30.9005 32.71 30.5505C32.39 30.1105 31.75 29.7505 29.95 28.9505C27.88 28.0705 27 27.5105 26.18 26.6505C25.71 26.1305 25.28 25.3205 25.08 24.6505C24.93 24.0705 24.88 22.6505 25.02 22.0805C25.45 20.0805 26.96 18.6805 29.12 18.2805C29.82 18.1405 31.47 18.2005 32.16 18.3805L32.14 18.4005V18.4005Z" fill="#FAF7F4"/>
</svg>
