<svg width="41" height="40" viewBox="0 0 41 40" fill="none" xmlns="http://www.w3.org/2000/svg">
<path d="M40.6645 19.9767H40.6195L33.4229 12.78L40.5946 5.42333V2.435L39.5129 1.355H25.8496L24.7496 2.36333V4.105L20.6896 0.045V0L20.6646 0.0233333L20.6412 0V0.045L18.4912 2.19667L17.5946 1.29833H4.05622L2.99288 2.45167V5.59333L4.01955 6.62H5.21955V15.47L0.709551 19.9783H0.664551L0.687884 20L0.664551 20.0233H0.709551L5.21955 24.5333V35.3117L6.73122 36.1833H10.6012L13.6962 33.01L20.6395 39.9533V40L20.6646 39.9767L20.6879 40V39.9533L24.8712 35.7717H25.6795C25.8645 35.7717 26.0312 35.655 26.0962 35.4733L26.3395 34.7633C26.3862 34.6233 26.3596 34.4767 26.2779 34.365L28.7145 31.9283L27.6946 35.1983C27.6229 35.4333 27.7546 35.68 27.9896 35.7517C28.0312 35.765 28.0762 35.7717 28.1195 35.7717H31.1596C31.3362 35.77 31.4946 35.665 31.5646 35.5L31.8395 34.8433C31.8812 34.735 31.8796 34.6133 31.8329 34.505C31.7879 34.3967 31.6996 34.3117 31.5896 34.2683C31.5412 34.2483 31.4862 34.2367 31.4279 34.235H31.3029L32.7029 29.8283H34.7562L33.0629 35.1967C32.9912 35.4317 33.1229 35.6783 33.3562 35.75C33.3979 35.7633 33.4429 35.77 33.4879 35.77H36.8245C37.0079 35.77 37.1696 35.66 37.2379 35.4867L37.5112 34.7733C37.5962 34.5433 37.4762 34.29 37.2479 34.205C37.1996 34.1867 37.1479 34.1767 37.0962 34.1767H36.8546L38.7395 28.055C38.7845 27.9183 38.7595 27.7667 38.6745 27.655L38.0495 26.815L38.0445 26.8067C37.9595 26.7 37.8329 26.6367 37.6962 26.6367H35.3029C35.1846 26.6367 35.0679 26.6867 34.9862 26.7717L34.3196 27.5033H33.2796L33.2096 27.4267L40.6179 20.0183H40.6645L40.6412 20L40.6645 19.9767ZM17.0612 35.2317L19.6929 27.7167H18.8579L19.3529 27.21H22.1179L19.5129 34.8017H20.5512L20.4195 35.2317H17.0612ZM23.2196 22.705L23.4695 22.9567L23.0212 24.4933L22.6462 24.87H21.0312L20.7295 24.5683L21.2479 23.1167L21.7279 22.705H23.2196V22.705ZM9.98122 34.715H7.12622L6.68955 34.465V5.15167H4.62955L4.46288 4.985V3.025L4.70122 2.76833H16.9862L17.3412 3.125V4.97167L17.1046 5.26H15.3062V19.74L29.9845 5.26H26.5079L26.2162 4.94667V3.00833L26.4179 2.82333H38.9012L39.1212 3.045V4.82833L22.2962 22.0833H21.6746C21.6496 22.0817 21.6279 22.0833 21.6046 22.085L21.5712 22.09C21.4962 22.1067 21.4279 22.14 21.3729 22.19L20.8012 22.6817L20.7946 22.6867C20.7396 22.7383 20.6962 22.8017 20.6729 22.8717L20.1795 24.255L9.98122 34.715V34.715ZM34.5945 28.1283L35.3846 27.2633H37.6079L38.1229 27.955L36.0145 34.8H36.8362L36.7029 35.1483H33.7312L35.6046 29.2083H32.2462L30.4512 34.86H31.1579L31.0362 35.15H28.3612L30.2062 29.2367H26.7129L24.9429 34.8017H25.6696L25.5495 35.15H22.7812L25.3046 27.7167H24.3279L24.4795 27.265H27.2296L28.0946 28.16H29.6046L30.4229 27.2367H32.1912L33.0062 28.1283H34.5945V28.1283Z" fill="#FAF7F4"/>
</svg>
