<svg width="42" height="40" viewBox="0 0 42 40" fill="none" xmlns="http://www.w3.org/2000/svg">
<path d="M1.1156 13.9486C1.1156 13.9486 0.127788 13.2387 1.31316 12.2909L4.07492 9.82891C4.07492 9.82891 4.86517 9.00005 5.70069 9.72222L31.1862 28.9584V38.1825C31.1862 38.1825 31.1739 39.631 29.3094 39.471L1.1156 13.9486Z" fill="#FAF7F4"/>
<path d="M7.68462 19.8945L1.11568 25.8484C1.11568 25.8484 0.440671 26.349 1.11568 27.2435L4.16555 30.0091C4.16555 30.0091 4.88994 30.7846 5.96007 29.9024L12.9241 24.6379L7.68462 19.8945Z" fill="#182725"/>
<path d="M19.2175 19.9444L31.2647 10.7736L31.1865 1.59867C31.1865 1.59867 30.672 -0.403726 28.9557 0.638506L12.9243 15.1846L19.2175 19.9444Z" fill="#969696"/>
<path d="M29.3093 39.4833C30.009 40.1972 30.8569 39.9634 30.8569 39.9634L40.2452 35.3513C41.447 34.5347 41.2783 33.5212 41.2783 33.5212V5.98005C41.2783 4.76958 40.0353 4.35105 40.0353 4.35105L31.8982 0.440627C30.1201 -0.654947 28.9553 0.637584 28.9553 0.637584C28.9553 0.637584 30.4535 -0.437474 31.1861 1.59775V38.0143C31.1861 38.2646 31.1326 38.5108 31.0256 38.7324C30.8116 39.1632 30.3465 39.5653 29.2311 39.3971L29.3093 39.4833Z" fill="white"/>
</svg>
