<svg width="37" height="40" viewBox="0 0 37 40" fill="none" xmlns="http://www.w3.org/2000/svg">
<path d="M18.5763 0L36.253 10V30L18.5763 40L0.899658 30V10L18.5763 0Z" fill="#FAF7F4"/>
<path d="M33.0964 29.31L19.1597 37.1933V31.0533L27.8431 26.2766L33.0964 29.31ZM34.0497 28.4466V11.96L28.9497 14.9033V25.5L34.0497 28.4466ZM3.99972 29.31L17.9364 37.1933V31.0533L9.25305 26.2766L3.99972 29.31V29.31ZM3.04639 28.4466V11.96L8.14639 14.9033V25.5L3.04639 28.4466V28.4466ZM3.64305 10.8933L17.9364 2.80664V8.74331L8.77972 13.78L8.70972 13.82L3.64305 10.8933V10.8933ZM33.4531 10.8933L19.1597 2.80664V8.74331L28.3164 13.78L28.3864 13.82L33.4531 10.8933V10.8933Z" fill="#BDD3CC"/>
<path d="M17.9363 29.657L9.36963 24.947V15.6137L17.9363 20.5604V29.657ZM19.1596 29.657L27.7263 24.947V15.6137L19.1596 20.5604V29.657ZM9.94963 14.5337L18.5496 9.80371L27.1496 14.5337L18.5496 19.5004L9.94963 14.5337" fill="#182725"/>
</svg>
