<svg width="42" height="40" viewBox="0 0 42 40" fill="none" xmlns="http://www.w3.org/2000/svg">
<path d="M8.02848 0.000976562H34.6501C38.6863 0.000976562 41.9496 3.24884 41.9496 7.26593V32.736C41.9496 36.7531 38.6863 40.001 34.6501 40.001H8.02848C3.9923 40.001 0.729004 36.7531 0.729004 32.736V7.26593C0.729004 3.24884 3.9923 0.000976562 8.02848 0.000976562Z" fill="#182725"/>
<path d="M22.404 10.5138L17.2514 18.9754L22.7475 27.9497C22.7818 28.0181 22.799 28.0865 22.7818 28.1549C22.7646 28.2232 22.6959 28.1719 22.5929 28.189H18.6598C18.3849 28.189 18.196 28.1719 18.0758 28.001C17.7151 27.2831 17.3373 26.5822 16.9766 25.8643C16.6159 25.1634 16.2209 24.4454 15.8087 23.7104C15.3965 22.9754 14.9843 22.2403 14.572 21.4882H14.5377C14.177 22.2232 13.782 22.9583 13.387 23.6933C12.9919 24.4284 12.5969 25.1634 12.219 25.8813C11.824 26.5993 11.429 27.3343 11.0339 28.0352C10.9652 28.2061 10.8278 28.2232 10.6389 28.2232H6.86036C6.79166 28.2232 6.74014 28.2574 6.74014 28.1719C6.72296 28.1036 6.74014 28.0352 6.77449 27.9839L12.116 19.266L6.91189 10.4967C6.86036 10.4284 6.84319 10.36 6.87754 10.3258C6.91189 10.2745 6.98059 10.2574 7.04929 10.2574H10.9481C11.0339 10.2574 11.1198 10.2745 11.1885 10.2916C11.2572 10.3258 11.3088 10.3771 11.3603 10.4454C11.6866 11.1805 12.0645 11.9155 12.4595 12.6506C12.8717 13.3856 13.2667 14.1036 13.6961 14.8215C14.1083 15.5395 14.4862 16.2574 14.8468 16.9925H14.8812C15.2419 16.2403 15.6197 15.5053 15.9976 14.7873C16.3754 14.0694 16.7705 13.3514 17.1655 12.6335C17.5605 11.9155 17.9384 11.1805 18.3162 10.4796C18.3334 10.4113 18.3678 10.3429 18.4193 10.3087C18.488 10.2745 18.5567 10.2574 18.6426 10.2745H22.2666C22.3524 10.2574 22.4383 10.3087 22.4555 10.3942C22.4727 10.4113 22.4383 10.4796 22.404 10.5138V10.5138ZM30.3389 28.548C29.0679 28.5651 27.797 28.3087 26.6462 27.7788C25.5642 27.2831 24.6711 26.4625 24.0528 25.454C23.4173 24.4113 23.1081 23.1121 23.1081 21.5566C23.091 20.2916 23.4173 19.0437 24.0528 17.9497C24.7054 16.8386 25.6501 15.9155 26.7836 15.3001C27.9859 14.6335 29.4286 14.3087 31.129 14.3087C31.2149 14.3087 31.3351 14.3087 31.4897 14.3258C31.6442 14.3429 31.816 14.3429 32.0221 14.36V8.95827C32.0221 8.83861 32.0736 8.77023 32.1938 8.77023H35.6804C35.7663 8.75314 35.835 8.82152 35.8522 8.88989V25.1976C35.8522 25.5053 35.8693 25.8472 35.8865 26.2232C35.9209 26.5822 35.938 26.9241 35.9552 27.2147C35.9552 27.3343 35.9037 27.4369 35.7835 27.4882C34.8904 27.8643 33.9457 28.1378 32.9839 28.3087C32.108 28.4625 31.232 28.548 30.3389 28.548V28.548ZM32.0221 25.1292V17.6078C31.8675 17.5737 31.7129 17.5395 31.5584 17.5224C31.3694 17.5053 31.1805 17.4882 30.9916 17.4882C30.3217 17.4882 29.6519 17.6249 29.0508 17.9326C28.4668 18.2232 27.9687 18.6506 27.5909 19.1976C27.213 19.7446 27.0241 20.4796 27.0241 21.3685C27.0069 21.9668 27.11 22.5651 27.3161 23.1292C27.4878 23.5907 27.7455 24.001 28.089 24.3429C28.4153 24.6506 28.8103 24.8899 29.2569 25.0266C29.7206 25.1805 30.2015 25.2489 30.6824 25.2489C30.94 25.2489 31.1805 25.2318 31.4038 25.2147C31.6271 25.2318 31.816 25.1976 32.0221 25.1292V25.1292Z" fill="white"/>
</svg>
