<svg width="29" height="15" viewBox="0 0 29 15" fill="none" xmlns="http://www.w3.org/2000/svg">
<path d="M0.137756 14.0004V0.909446H5.30253C6.29117 0.909446 7.13492 1.08629 7.83378 1.43999C8.5369 1.78942 9.07171 2.28587 9.43818 2.92933C9.80892 3.56854 9.99429 4.32067 9.99429 5.18572C9.99429 6.05504 9.80679 6.80291 9.43179 7.42933C9.05679 8.05149 8.51347 8.52876 7.80182 8.86115C7.09443 9.19354 6.2379 9.35973 5.23222 9.35973H1.77412V7.1353H4.78477C5.31318 7.1353 5.7521 7.06286 6.10153 6.91797C6.45097 6.77308 6.71091 6.55575 6.88136 6.26598C7.05608 5.97621 7.14344 5.61612 7.14344 5.18572C7.14344 4.75107 7.05608 4.38459 6.88136 4.08629C6.71091 3.788 6.44884 3.56214 6.09514 3.40874C5.74571 3.25107 5.30466 3.17223 4.77199 3.17223H2.90551V14.0004H0.137756ZM7.20736 8.04297L10.4609 14.0004H7.40551L4.22227 8.04297H7.20736Z" fill="white"/>
<path d="M23.9801 7.4549C23.9801 8.88246 23.7095 10.0969 23.1683 11.0984C22.6314 12.0998 21.8984 12.8647 20.9694 13.3931C20.0447 13.9173 19.0049 14.1793 17.8501 14.1793C16.6868 14.1793 15.6427 13.9151 14.718 13.3867C13.7933 12.8583 13.0625 12.0934 12.5255 11.092C11.9886 10.0906 11.7201 8.8782 11.7201 7.4549C11.7201 6.02734 11.9886 4.81286 12.5255 3.81144C13.0625 2.81001 13.7933 2.04723 14.718 1.52308C15.6427 0.994673 16.6868 0.730469 17.8501 0.730469C19.0049 0.730469 20.0447 0.994673 20.9694 1.52308C21.8984 2.04723 22.6314 2.81001 23.1683 3.81144C23.7095 4.81286 23.9801 6.02734 23.9801 7.4549ZM21.174 7.4549C21.174 6.53018 21.0355 5.75036 20.7585 5.11541C20.4858 4.48047 20.1001 3.99894 19.6015 3.67081C19.103 3.34269 18.5191 3.17862 17.8501 3.17862C17.1811 3.17862 16.5973 3.34269 16.0987 3.67081C15.6001 3.99894 15.2123 4.48047 14.9353 5.11541C14.6626 5.75036 14.5263 6.53018 14.5263 7.4549C14.5263 8.37962 14.6626 9.15945 14.9353 9.79439C15.2123 10.4293 15.6001 10.9109 16.0987 11.239C16.5973 11.5671 17.1811 11.7312 17.8501 11.7312C18.5191 11.7312 19.103 11.5671 19.6015 11.239C20.1001 10.9109 20.4858 10.4293 20.7585 9.79439C21.0355 9.15945 21.174 8.37962 21.174 7.4549Z" fill="white"/>
<path d="M26.7446 14.1665C26.3228 14.1665 25.9606 14.0174 25.658 13.7191C25.3597 13.4165 25.2106 13.0543 25.2106 12.6325C25.2106 12.2148 25.3597 11.8569 25.658 11.5586C25.9606 11.2603 26.3228 11.1112 26.7446 11.1112C27.1537 11.1112 27.5117 11.2603 27.8185 11.5586C28.1253 11.8569 28.2787 12.2148 28.2787 12.6325C28.2787 12.9137 28.2063 13.1715 28.0614 13.4059C27.9208 13.636 27.7354 13.8214 27.5053 13.962C27.2752 14.0984 27.0216 14.1665 26.7446 14.1665Z" fill="white"/>
</svg>
