<svg width="161" height="40" viewBox="0 0 161 40" fill="none" xmlns="http://www.w3.org/2000/svg">
<path d="M2.57188 28.6774C0.859883 26.7587 0.00421654 23.992 0.0048832 20.3774C0.00554987 16.7627 0.861217 14.001 2.57188 12.0924C4.28388 10.1877 6.78388 9.23504 10.0719 9.23438C13.3599 9.23371 15.8512 10.1864 17.5459 12.0924C19.2445 13.997 20.0939 16.7577 20.0939 20.3744C20.0939 23.991 19.2445 26.7577 17.5459 28.6744C15.8425 30.5957 13.3482 31.5557 10.0629 31.5544C6.77755 31.553 4.28055 30.594 2.57188 28.6774ZM12.9399 25.1154C13.6501 23.6405 13.971 22.0084 13.8719 20.3744C13.9731 18.7467 13.652 17.1205 12.9399 15.6534C12.6538 15.1501 12.233 14.7365 11.7247 14.4594C11.2165 14.1822 10.6409 14.0523 10.0629 14.0844C9.48149 14.0539 8.90298 14.1846 8.39122 14.4622C7.87947 14.7398 7.45438 15.1534 7.16288 15.6574C6.43706 17.1189 6.10906 18.7458 6.21188 20.3744C6.21188 24.5984 7.49555 26.7104 10.0629 26.7104C10.6439 26.7414 11.222 26.6083 11.731 26.3262C12.2399 26.0442 12.6592 25.6245 12.9409 25.1154" fill="white"/>
<path d="M24.721 38.4282V16.8542C24.721 15.6395 24.6877 14.7062 24.621 14.0542C24.5544 13.4022 24.465 12.6775 24.353 11.8802C24.2835 11.5949 24.2416 11.3035 24.228 11.0102C24.228 10.5695 24.7874 10.2382 25.906 10.0162C26.8791 9.81393 27.8693 9.70576 28.863 9.6932C29.0714 9.67403 29.2809 9.71686 29.465 9.81632C29.6491 9.91577 29.7998 10.0674 29.898 10.2522C30.0935 10.6319 30.2394 11.0353 30.332 11.4522C30.432 11.8802 30.49 12.1762 30.518 12.3422C31.0381 11.4078 31.8046 10.6341 32.734 10.1052C33.7451 9.51723 34.8975 9.21642 36.067 9.2352C37.5077 9.2175 38.9139 9.67627 40.067 10.5402C41.3293 11.5302 42.2843 12.8584 42.821 14.3702C43.5265 16.3059 43.8636 18.3565 43.815 20.4162C43.9714 23.3082 43.1623 26.1701 41.515 28.5522C40.7648 29.5361 39.7868 30.3232 38.6652 30.8457C37.5437 31.3683 36.312 31.6107 35.076 31.5522C33.5666 31.5895 32.0854 31.1392 30.852 30.2682V38.4262C30.852 39.3095 30.0237 39.7512 28.367 39.7512H27.206C25.5494 39.7512 24.721 39.3095 24.721 38.4262M37.6 20.4152C37.6 16.3012 36.482 14.2445 34.246 14.2452C32.9214 14.2452 31.788 15.0595 30.846 16.6882V25.9222C31.7279 26.432 32.7274 26.7032 33.746 26.7092C36.3134 26.7092 37.597 24.6112 37.597 20.4152" fill="white"/>
<path d="M51.037 30.2499C49.7748 29.2596 48.8195 27.9315 48.282 26.4199C47.5764 24.4842 47.2393 22.4336 47.288 20.3739C47.132 17.482 47.941 14.6201 49.588 12.2379C50.3383 11.254 51.3163 10.4669 52.4378 9.94439C53.5594 9.42184 54.7911 9.1794 56.027 9.23791C57.5364 9.20136 59.0174 9.65155 60.251 10.5219V1.3289C60.251 0.44557 61.079 0.00390625 62.735 0.00390625H63.895C65.5517 0.00390625 66.3797 0.44557 66.379 1.3289V23.9399C66.379 25.2066 66.4124 26.1732 66.479 26.8399C66.5457 27.5066 66.6354 28.2382 66.748 29.0349C66.8229 29.3331 66.8645 29.6386 66.872 29.9459C66.872 30.3886 66.313 30.7199 65.195 30.9399C64.221 31.1453 63.2294 31.2565 62.234 31.2719C62.0209 31.2893 61.8076 31.2411 61.6226 31.1339C61.4376 31.0267 61.2898 30.8655 61.199 30.6719C61.0032 30.2604 60.8584 29.8265 60.768 29.3799C60.6714 28.9239 60.609 28.6136 60.581 28.4489C60.0615 29.3831 59.2953 30.1566 58.366 30.6849C57.3551 31.2733 56.2026 31.5741 55.033 31.5549C53.5929 31.5741 52.1867 31.1171 51.033 30.2549M60.251 24.1009V14.8659C59.3689 14.3567 58.3696 14.0855 57.351 14.0789C54.7837 14.0789 53.5 16.1769 53.5 20.3729C53.5007 24.4842 54.6194 26.5399 56.856 26.5399C58.1807 26.5399 59.314 25.7256 60.256 24.0969" fill="white"/>
<path d="M71.3896 5.30005V2.36005C71.3896 1.34072 72.411 0.831055 74.4536 0.831055C76.4963 0.831055 77.518 1.34072 77.5186 2.36005V5.30005C77.5186 6.34939 76.4973 6.87372 74.4546 6.87305C72.412 6.87239 71.3903 6.34805 71.3896 5.30005ZM71.3896 29.9801V10.8081C71.3896 9.92472 72.218 9.48306 73.8746 9.48306H75.0336C76.691 9.48306 77.5193 9.92472 77.5186 10.8081V29.9801C77.5186 30.8641 76.6903 31.3061 75.0336 31.3061H73.8746C72.218 31.3061 71.3896 30.8641 71.3896 29.9801Z" fill="white"/>
<path d="M85.4067 30.2499C84.1445 29.2596 83.1891 27.9315 82.6517 26.4199C81.946 24.4842 81.6089 22.4336 81.6577 20.3739C81.5016 17.482 82.3106 14.6201 83.9577 12.2379C84.7079 11.254 85.6859 10.4669 86.8075 9.94439C87.929 9.42184 89.1607 9.1794 90.3967 9.23791C91.906 9.20136 93.387 9.65155 94.6207 10.5219V1.3289C94.6207 0.44557 95.4487 0.00390625 97.1047 0.00390625H98.2647C99.9213 0.00390625 100.749 0.44557 100.749 1.3289V23.9399C100.749 25.2066 100.782 26.1732 100.849 26.8399C100.915 27.5066 101.005 28.2382 101.118 29.0349C101.193 29.3331 101.234 29.6386 101.242 29.9459C101.242 30.3886 100.683 30.7199 99.5647 30.9399C98.5906 31.1453 97.599 31.2565 96.6037 31.2719C96.3906 31.2893 96.1772 31.2411 95.9923 31.1339C95.8073 31.0267 95.6595 30.8655 95.5687 30.6719C95.3728 30.2604 95.2281 29.8265 95.1377 29.3799C95.041 28.9239 94.9787 28.6136 94.9507 28.4489C94.4312 29.3831 93.6649 30.1566 92.7357 30.6849C91.7247 31.2733 90.5722 31.5741 89.4027 31.5549C87.9625 31.5741 86.5563 31.1171 85.4027 30.2549M94.6207 24.1009V14.8659C93.7385 14.3567 92.7392 14.0855 91.7207 14.0789C89.1533 14.0789 87.8697 16.1769 87.8697 20.3729C87.8703 24.4842 88.989 26.5399 91.2257 26.5399C92.5503 26.5399 93.6837 25.7256 94.6257 24.0969" fill="white"/>
<path d="M106.526 29.898C105.503 28.6713 104.978 27.1047 105.056 25.509C105.033 24.4695 105.238 23.4377 105.657 22.4859C106.075 21.5342 106.697 20.6857 107.479 20C109.094 18.538 112.248 17.8067 116.941 17.806V16.439C116.966 16.1025 116.91 15.7648 116.777 15.4547C116.644 15.1446 116.438 14.8713 116.176 14.658C115.435 14.2117 114.573 14.0092 113.711 14.079C112.88 14.0659 112.052 14.1634 111.247 14.369C110.603 14.5412 109.973 14.7625 109.363 15.031C109.059 15.1879 108.74 15.3129 108.411 15.404C108.134 15.404 107.831 15.198 107.499 14.784C107.152 14.3429 106.861 13.8614 106.63 13.35C106.422 12.9584 106.295 12.5288 106.257 12.087C106.257 11.6203 106.602 11.165 107.292 10.721C108.178 10.2057 109.144 9.84357 110.15 9.65002C111.469 9.36333 112.817 9.22448 114.167 9.23602C117.286 9.23602 119.549 9.85002 120.958 11.078C121.666 11.7128 122.222 12.4976 122.588 13.3751C122.953 14.2526 123.118 15.2007 123.07 16.15V23.935C123.07 25.205 123.103 26.1717 123.17 26.835C123.237 27.4983 123.326 28.23 123.439 29.03C123.514 29.3281 123.556 29.6337 123.564 29.941C123.564 30.3823 123.005 30.7137 121.886 30.935C120.912 31.1405 119.92 31.2517 118.925 31.267C118.712 31.2844 118.499 31.2363 118.314 31.129C118.129 31.0218 117.981 30.8606 117.89 30.667C117.692 30.2532 117.546 29.8166 117.455 29.367C117.358 28.9003 117.296 28.5827 117.269 28.414C116.993 28.8512 116.659 29.2482 116.275 29.594C115.663 30.1532 114.964 30.6079 114.205 30.94C113.256 31.3635 112.224 31.5718 111.185 31.55C110.335 31.6261 109.479 31.5179 108.675 31.2328C107.871 30.9477 107.138 30.4924 106.526 29.898M115.408 25.964C116.078 25.4926 116.607 24.8489 116.941 24.101V21.823C113.074 21.823 111.141 22.844 111.141 24.886C111.13 25.1327 111.172 25.3789 111.265 25.6077C111.358 25.8365 111.499 26.0426 111.679 26.212C112.107 26.5687 112.655 26.7477 113.211 26.712C114.004 26.7054 114.773 26.4438 115.406 25.966" fill="white"/>
<path d="M147.253 30.685C147.253 31.099 146.466 31.306 144.893 31.306H143.153C141.8 31.306 140.972 31.0436 140.669 30.519L134.913 20.994L134.747 21.035V29.98C134.747 30.864 133.919 31.306 132.263 31.306H131.104C129.447 31.306 128.619 30.864 128.619 29.98V1.32598C128.619 0.442644 129.447 0.000976562 131.104 0.000976562H132.264C133.92 0.000976562 134.748 0.442644 134.748 1.32598V17.726L134.914 17.767L139.924 10.267C140.133 9.9437 140.459 9.71397 140.834 9.62598C141.365 9.51525 141.907 9.46659 142.449 9.48098H143.981C145.526 9.48098 146.299 9.68798 146.3 10.102C146.263 10.4096 146.133 10.6985 145.927 10.93L140.171 19.13L146.921 29.813C147.112 30.0651 147.227 30.3672 147.252 30.683" fill="white"/>
<path d="M150.648 24.8457V14.4107H149.986C149.796 14.4247 149.606 14.3853 149.438 14.2969C149.27 14.2086 149.129 14.0748 149.033 13.9107C148.807 13.4184 148.707 12.8773 148.743 12.3367V11.6367C148.707 11.0961 148.807 10.555 149.033 10.0627C149.129 9.89866 149.27 9.76486 149.438 9.67648C149.606 9.58811 149.796 9.5487 149.986 9.56271H150.648L151.186 5.62971C151.325 4.74638 152.07 4.30438 153.423 4.30371H154.706C156.085 4.30371 156.775 4.74571 156.776 5.62971V9.56271H158.806C158.996 9.54877 159.185 9.58822 159.353 9.6766C159.522 9.76498 159.662 9.89874 159.758 10.0627C159.984 10.555 160.084 11.0961 160.048 11.6367V12.3367C160.084 12.8773 159.984 13.4184 159.758 13.9107C159.662 14.0747 159.522 14.2084 159.353 14.2968C159.185 14.3852 158.996 14.4247 158.806 14.4107H156.774V24.9287C156.732 25.4113 156.857 25.8938 157.129 26.2947C157.276 26.4436 157.455 26.558 157.651 26.6296C157.848 26.7012 158.058 26.7282 158.267 26.7087C158.456 26.7016 158.644 26.6738 158.827 26.6257C159.01 26.5783 159.197 26.5508 159.386 26.5437C159.635 26.5437 159.855 26.7497 160.048 27.1637C160.249 27.6016 160.402 28.0599 160.504 28.5307C160.588 28.8567 160.643 29.1893 160.67 29.5247C160.67 30.8774 159.345 31.5537 156.694 31.5537C152.663 31.5537 150.648 29.3174 150.648 24.8447" fill="white"/>
</svg>
