<svg width="133" height="31" viewBox="0 0 133 31" fill="none" xmlns="http://www.w3.org/2000/svg">
<path d="M56.9065 25.6747C56.9011 25.8201 56.8646 25.9626 56.7995 26.0928C56.7345 26.2229 56.6423 26.3376 56.5293 26.4292C56.3419 26.614 56.0954 26.7269 55.8331 26.7482C55.5483 26.7253 55.2809 26.6019 55.0786 26.4001L52.8742 24.0501C52.0238 24.2827 51.1441 24.3901 50.2627 24.3691H46.7809C44.5563 24.3691 42.917 23.842 41.8632 22.7879C40.8093 21.7338 40.2822 20.0946 40.282 17.8703V11.1678C40.282 8.94379 40.8138 7.30456 41.8776 6.25009C42.5503 5.6778 43.3306 5.24568 44.1726 4.97911C45.0146 4.71254 45.9014 4.6169 46.7809 4.69779H50.2627C51.1462 4.62337 52.0358 4.72479 52.8799 4.9962C53.724 5.2676 54.506 5.70359 55.1806 6.27899C56.2346 7.33339 56.7616 8.97269 56.7616 11.1969V17.8703C56.7616 20.3076 56.1137 22.0582 54.8179 23.1219L56.6167 25.0077C56.7078 25.0933 56.7805 25.1966 56.8304 25.3113C56.8802 25.426 56.9061 25.5496 56.9065 25.6747V25.6747ZM50.8431 21.9319L50.0887 21.1195C49.991 21.0312 49.9123 20.9239 49.8575 20.8041C49.8026 20.6844 49.7728 20.5547 49.7697 20.4231C49.7998 20.1488 49.9226 19.8929 50.1178 19.6978C50.3129 19.5026 50.5688 19.3799 50.8431 19.3497C51.1305 19.3846 51.3971 19.5178 51.5976 19.7267L53.1349 21.3225C53.5723 21.016 53.8941 20.5716 54.0489 20.0604C54.2543 19.3492 54.3475 18.6103 54.3249 17.8704V11.1974C54.3605 10.3681 54.2324 9.53984 53.9477 8.76009C53.7121 8.19612 53.2635 7.74785 52.6994 7.51259C51.9199 7.22774 51.0918 7.09956 50.2627 7.13539H46.7809C45.9534 7.08268 45.1238 7.20118 44.3442 7.48349C43.7803 7.71868 43.3318 8.16665 43.0959 8.73029C42.8115 9.51003 42.6836 10.3382 42.7195 11.1674V17.8703C42.6811 18.7044 42.8091 19.5377 43.0959 20.3219C43.3322 20.877 43.7746 21.3189 44.33 21.5546C45.1138 21.8421 45.9472 21.9704 46.7812 21.9319H50.8434H50.8431Z" fill="white"/>
<path d="M77.0417 17.9276V18.9141C77.0937 19.6511 76.9958 20.391 76.754 21.0891C76.5122 21.7872 76.1315 22.4291 75.6348 22.9761C75.0823 23.4679 74.4371 23.8444 73.7371 24.0835C73.0371 24.3226 72.2964 24.4196 71.5584 24.3687H63.6084C63.4442 24.3858 63.2782 24.366 63.1226 24.3108C62.967 24.2556 62.8256 24.1664 62.7089 24.0496C62.5922 23.9328 62.503 23.7915 62.4478 23.6358C62.3926 23.4802 62.3729 23.3142 62.39 23.15V5.9161C62.3798 5.75242 62.4028 5.58837 62.4576 5.4338C62.5124 5.27924 62.598 5.13736 62.709 5.0167C62.8297 4.90558 62.9715 4.82002 63.1261 4.76516C63.2807 4.71031 63.4447 4.68729 63.6084 4.6975H71.1813C71.8227 4.65628 72.4658 4.74276 73.0735 4.95194C73.6812 5.16113 74.2413 5.48884 74.7213 5.9161C75.1565 6.38014 75.4917 6.92857 75.7063 7.52742C75.9209 8.12628 76.0102 8.76281 75.9688 9.3976V10.1811C75.9751 10.767 75.8666 11.3485 75.6494 11.8928C75.4534 12.391 75.1457 12.8377 74.75 13.1984C76.2777 14.0885 77.0416 15.6649 77.0417 17.9276ZM64.8269 12.5022H72.0805C72.3092 12.4858 72.5301 12.4121 72.7228 12.2878C72.9155 12.1635 73.0738 11.9928 73.1831 11.7912C73.434 11.2928 73.5538 10.7387 73.5312 10.1812V9.3976C73.5965 8.76647 73.4087 8.13522 73.009 7.6424C72.4854 7.24895 71.8326 7.0676 71.1811 7.1346H64.8269V12.5022ZM74.6046 17.9276C74.6457 17.5163 74.6054 17.1009 74.4859 16.7051C74.3665 16.3094 74.1702 15.941 73.9084 15.6211C73.2415 15.1009 72.4002 14.8568 71.5584 14.9393H64.8269V21.9316H71.5584C72.3977 22.0102 73.2348 21.7606 73.8939 21.2352C74.1595 20.9142 74.359 20.5439 74.481 20.1456C74.603 19.7473 74.645 19.3287 74.6046 18.9141V17.9276Z" fill="white"/>
<path d="M82.0611 23.1501V5.91616C82.0597 5.75521 82.0901 5.59557 82.1507 5.44645C82.2113 5.29732 82.3008 5.16168 82.4141 5.04736C82.5274 4.93303 82.6622 4.84228 82.8108 4.78034C82.9594 4.71841 83.1187 4.68652 83.2797 4.68652C83.4406 4.68652 83.6 4.71841 83.7486 4.78034C83.8971 4.84228 84.032 4.93303 84.1453 5.04736C84.2586 5.16168 84.3481 5.29732 84.4087 5.44645C84.4693 5.59557 84.4997 5.75521 84.4982 5.91616V21.9317H92.5348C92.7004 21.908 92.8691 21.9232 93.0277 21.9761C93.1864 22.029 93.3305 22.118 93.4487 22.2363C93.567 22.3545 93.6561 22.4986 93.709 22.6572C93.7619 22.8158 93.7771 22.9845 93.7535 23.1501C93.7772 23.3156 93.7619 23.4843 93.709 23.643C93.6561 23.8016 93.567 23.9457 93.4488 24.0639C93.3305 24.1821 93.1864 24.2712 93.0278 24.3241C92.8691 24.3769 92.7004 24.3921 92.5348 24.3685H83.2799C83.1144 24.3922 82.9456 24.3771 82.7869 24.3242C82.6283 24.2714 82.4841 24.1823 82.3658 24.0641C82.2475 23.9459 82.1584 23.8017 82.1055 23.6431C82.0527 23.4844 82.0375 23.3156 82.0611 23.1501Z" fill="white"/>
<path d="M98.2068 22.7878C97.1524 21.7337 96.6252 20.0944 96.6254 17.8699V11.1678C96.6254 8.94379 97.1574 7.30456 98.2214 6.25009C98.8941 5.6778 99.6743 5.24568 100.516 4.97911C101.358 4.71254 102.245 4.6169 103.125 4.69779H106.606C108.83 4.69779 110.47 5.22486 111.524 6.27899C112.099 6.95356 112.536 7.73551 112.807 8.57964C113.078 9.42377 113.18 10.3133 113.105 11.1969V17.8703C113.105 20.0949 112.578 21.7342 111.524 22.7882C110.47 23.8422 108.83 24.3693 106.606 24.3694H103.125C100.9 24.3691 99.2608 23.8419 98.2068 22.7878ZM106.606 21.9319C107.44 21.9703 108.274 21.842 109.058 21.5546C109.613 21.3186 110.055 20.8766 110.291 20.3215C110.578 19.5374 110.706 18.704 110.668 17.8699V11.1969C110.704 10.3676 110.576 9.53934 110.291 8.75959C110.056 8.19563 109.607 7.74733 109.043 7.51209C108.264 7.22725 107.435 7.09906 106.606 7.13489H103.125C102.297 7.08218 101.467 7.20068 100.688 7.48299C100.124 7.71825 99.6754 8.16646 99.44 8.73029C99.1551 9.50993 99.0271 10.3381 99.0631 11.1674V17.8703C99.0246 18.7044 99.1527 19.5378 99.44 20.3219C99.6758 20.8772 100.118 21.3192 100.673 21.555C101.457 21.8425 102.291 21.9708 103.125 21.9323L106.606 21.9319Z" fill="white"/>
<path d="M116.935 23.1789C116.939 22.897 117.03 22.6232 117.196 22.3956L122.506 14.5618L116.906 6.67007C116.752 6.4579 116.661 6.20637 116.645 5.94477C116.654 5.74573 116.712 5.55204 116.813 5.38026C116.914 5.20848 117.056 5.06372 117.225 4.95837C117.446 4.80084 117.708 4.71021 117.979 4.69727C118.17 4.70863 118.355 4.76768 118.517 4.869C118.679 4.97032 118.814 5.11069 118.908 5.27727L124.101 12.5596L129.323 5.27727C129.421 5.11374 129.556 4.97583 129.718 4.87496C129.879 4.77409 130.062 4.71318 130.252 4.69727C130.532 4.71649 130.797 4.82886 131.006 5.01647C131.173 5.11034 131.313 5.24451 131.414 5.40669C131.516 5.56886 131.575 5.75387 131.586 5.94477C131.577 6.22165 131.475 6.48736 131.296 6.69927L125.58 14.6493L131.064 22.3669C131.227 22.5854 131.318 22.8489 131.325 23.1214C131.32 23.3215 131.264 23.517 131.162 23.6895C131.061 23.862 130.917 24.0059 130.745 24.1078C130.526 24.2706 130.263 24.3618 129.991 24.3689C129.8 24.3577 129.615 24.2988 129.452 24.1974C129.29 24.0961 129.156 23.9556 129.062 23.7889L124.014 16.6798L119.198 23.817C119.104 23.9808 118.969 24.1175 118.806 24.214C118.644 24.3106 118.459 24.3637 118.27 24.3683C117.99 24.3531 117.719 24.2629 117.486 24.1072C117.322 24.0127 117.186 23.8777 117.089 23.7152C116.993 23.5526 116.94 23.3679 116.935 23.1789Z" fill="white"/>
<path d="M30.1534 1.43649C30.1474 1.40649 30.1361 1.37929 30.1277 1.35049C30.1186 1.31418 30.1075 1.27839 30.0944 1.24329C30.0785 1.20862 30.0606 1.17487 30.0409 1.14219C30.0267 1.11649 30.0155 1.08969 29.9989 1.06489C29.9612 1.00824 29.918 0.95542 29.8699 0.907192L29.8688 0.906292C29.8611 0.898592 29.8519 0.893492 29.844 0.886292C29.8029 0.846755 29.7585 0.810698 29.7114 0.778492C29.6853 0.760992 29.6572 0.748892 29.6299 0.734192C29.5985 0.715546 29.5662 0.698589 29.5329 0.683392C29.4981 0.670466 29.4626 0.65945 29.4265 0.650392C29.3976 0.641992 29.3699 0.630892 29.3399 0.624892C29.2787 0.613127 29.2166 0.606869 29.1542 0.606192L29.1378 0.604492H8.89394C8.82499 0.604573 8.75622 0.611507 8.68864 0.625192C8.64101 0.636081 8.59422 0.650385 8.54864 0.667992C8.53094 0.674192 8.51234 0.677392 8.49504 0.684592C8.4451 0.706422 8.39698 0.732204 8.35114 0.761692C8.33994 0.768592 8.32754 0.773092 8.31664 0.780392C8.26051 0.818066 8.20819 0.861138 8.16044 0.908992L8.15944 0.909792L0.972644 8.12979C0.961344 8.14119 0.953344 8.15479 0.942644 8.16659C0.907543 8.20356 0.875253 8.24311 0.846044 8.28489C0.832144 8.30559 0.822844 8.32869 0.810544 8.35029C0.78823 8.38648 0.768191 8.42402 0.750544 8.46269C0.739844 8.48849 0.734344 8.51609 0.725644 8.54269C0.686951 8.64418 0.668306 8.75221 0.670744 8.86079V29.1052C0.670763 29.1734 0.677461 29.2415 0.690744 29.3084C0.696744 29.3384 0.708144 29.3659 0.716644 29.3949C0.725768 29.431 0.736851 29.4667 0.749844 29.5016C0.766144 29.5373 0.784508 29.572 0.804844 29.6056C0.818544 29.6302 0.829244 29.6556 0.844844 29.6797C0.88287 29.7366 0.926414 29.7897 0.974844 29.8381V29.8381L0.984244 29.8458C1.02969 29.8902 1.07913 29.9304 1.13194 29.9658C1.15884 29.9838 1.18804 29.9958 1.21614 30.0115C1.24644 30.0295 1.27765 30.0459 1.30964 30.0606C1.34539 30.0739 1.38185 30.0852 1.41884 30.0945C1.44704 30.1027 1.47394 30.1136 1.50304 30.1194C1.56983 30.1326 1.63775 30.1393 1.70584 30.1394H21.951C22.02 30.1394 22.0888 30.1324 22.1563 30.1187C22.1995 30.1086 22.242 30.0957 22.2834 30.08C22.3056 30.0724 22.3288 30.0682 22.3503 30.0592C22.3962 30.0388 22.4405 30.0151 22.4828 29.9882C22.4977 29.9793 22.514 29.9731 22.5285 29.9634C22.5846 29.9258 22.6368 29.8828 22.6845 29.835L22.6854 29.8342L29.8722 22.6142C29.8835 22.6029 29.8915 22.5892 29.9022 22.5774C29.9373 22.5404 29.9696 22.5009 29.9989 22.4592C30.0126 22.4386 30.0219 22.4156 30.0342 22.3942C30.0565 22.3578 30.0766 22.3201 30.0942 22.2813C30.1047 22.2559 30.1101 22.2288 30.1186 22.2027C30.1576 22.1006 30.1764 21.9919 30.1739 21.8827V1.63979C30.1738 1.57152 30.167 1.50342 30.1534 1.43649V1.43649ZM28.1016 20.8484H22.9872V9.28839L28.1016 4.15049V20.8484ZM2.74334 9.89669H7.85774V21.4567L2.74334 26.5945V9.89669ZM9.92994 20.8484V9.89669H20.9148V20.8484H9.92994ZM21.5199 7.82429H9.92994V2.67689H26.6442L21.5199 7.82429ZM7.85734 7.82429H4.20064L7.85774 4.15049L7.85734 7.82429ZM9.32454 22.9208H20.9145V28.068H4.20074L9.32454 22.9208ZM22.9872 22.9208H26.6441L22.9872 26.5945V22.9208Z" fill="white"/>
</svg>
