<svg width="204" height="204" viewBox="0 0 204 204" fill="none" xmlns="http://www.w3.org/2000/svg">
<path fill-rule="evenodd" clip-rule="evenodd" d="M101.63 203.833C157.667 203.833 203.094 158.407 203.094 102.37C203.094 46.333 157.667 0.90625 101.63 0.90625C45.5934 0.90625 0.166626 46.333 0.166626 102.37C0.166626 158.407 45.5934 203.833 101.63 203.833ZM157.81 66.417C151.019 60.381 144.238 57.9459 137.244 59.1143C144.812 51.7092 149.166 40.3643 148.52 30C137.24 33.3767 128.803 40.8324 124.651 50.7214C123.766 43.3209 119.3 37.3481 111.147 32.6172C106.851 40.3047 106.147 50.7299 112.139 59.0415L121.89 65.7552L121.883 65.7558L134.326 74.3311C143.454 76.408 152.27 72.5387 157.81 66.4225L157.807 66.4201L157.81 66.417ZM108.606 90.2241C109.931 91.1837 110.234 93.0544 109.282 94.3947C108.329 95.7239 106.467 96.0259 105.131 95.068L84.8482 80.3671C76.7217 93.3402 69.8909 106.747 64.1452 120.328L76.6805 129.407C78.0054 130.367 78.3088 132.238 77.357 133.578C76.4034 134.907 74.5411 135.209 73.2053 134.251L61.8292 126.011L61.8218 126.035C55.5483 141.768 50.7119 157.697 47 173.489C53.5506 169.931 60.2147 165.756 66.9962 160.917L57.4582 154.028C56.1333 153.069 55.8299 151.198 56.7817 149.858C57.7353 148.528 59.5976 148.226 60.9334 149.184L72.0165 157.212C75.9026 154.278 79.8171 151.102 83.7834 147.692C90.9548 141.514 98.2658 134.535 105.737 126.671L85.1524 111.77C83.8275 110.811 83.5241 108.94 84.4759 107.6C85.4295 106.271 87.2918 105.969 88.6276 106.926L109.815 122.283C115.145 116.471 120.56 110.206 126.064 103.452L127.009 102.282C131.542 96.7473 134.505 93.1157 132.949 86.6372C132.839 86.1693 132.709 85.716 132.581 85.2737C132.439 84.8112 132.269 84.3192 132.069 83.7758C131.16 81.2918 129.74 78.9133 127.978 76.7145C126.049 74.3169 123.679 72.115 121.102 70.2291C118.806 68.5461 116.311 67.0986 113.774 65.9404C111.249 64.7913 108.685 63.9537 106.219 63.45C105.651 63.339 105.062 63.2425 104.454 63.1716C103.871 63.1082 103.347 63.0689 102.873 63.0555C95.9251 62.8846 92.5446 68.2353 88.4785 74.6709L88.4688 74.6864L88.0467 75.3421L108.606 90.2241Z" fill="white"/>
</svg>
